<?xml version="1.0" encoding="UTF-8" standalone="no"?>
<!DOCTYPE svg PUBLIC "-//W3C//DTD SVG 1.1//EN"
 "http://www.w3.org/Graphics/SVG/1.1/DTD/svg11.dtd">
<!-- Generated by graphviz version 2.40.1 (20161225.0304)
 -->
<!-- Title: dependencies Pages: 1 -->
<svg width="707pt" height="284pt"
 viewBox="0.00 0.00 707.00 284.00" xmlns="http://www.w3.org/2000/svg" xmlns:xlink="http://www.w3.org/1999/xlink">
<g id="graph0" class="graph" transform="scale(1 1) rotate(0) translate(4 280)">
<title>dependencies</title>
<polygon fill="#ffffff" stroke="transparent" points="-4,4 -4,-280 703,-280 703,4 -4,4"/>
<text text-anchor="start" x="328.5091" y="-42.4" font-family="sans-serif" font-weight="bold" font-size="14.00" fill="#000000">Legend</text>
<polygon fill="#ffffb3" stroke="transparent" points="115.5,-10 115.5,-30 135.5,-30 135.5,-10 115.5,-10"/>
<text text-anchor="start" x="139.129" y="-15.4" font-family="sans-serif" font-size="14.00" fill="#000000"> &#160;Declarations</text>
<polygon fill="#8dd3c7" stroke="transparent" points="228.5,-10 228.5,-30 248.5,-30 248.5,-10 228.5,-10"/>
<text text-anchor="start" x="252.2251" y="-15.4" font-family="sans-serif" font-size="14.00" fill="#000000"> &#160;Module</text>
<polygon fill="#80b1d3" stroke="transparent" points="314.5,-10 314.5,-30 334.5,-30 334.5,-10 314.5,-10"/>
<text text-anchor="start" x="338.2812" y="-15.4" font-family="sans-serif" font-size="14.00" fill="#000000"> &#160;Bootstrap</text>
<polygon fill="#fdb462" stroke="transparent" points="411.5,-10 411.5,-30 431.5,-30 431.5,-10 411.5,-10"/>
<text text-anchor="start" x="435.1732" y="-15.4" font-family="sans-serif" font-size="14.00" fill="#000000"> &#160;Providers</text>
<polygon fill="#fb8072" stroke="transparent" points="507.5,-10 507.5,-30 527.5,-30 527.5,-10 507.5,-10"/>
<text text-anchor="start" x="531.2258" y="-15.4" font-family="sans-serif" font-size="14.00" fill="#000000"> &#160;Exports</text>
<g id="clust1" class="cluster">
<title>cluster_AnalyseMixIntermaintModule</title>
<polygon fill="none" stroke="#000000" stroke-dasharray="1,5" points="8,-70 8,-268 691,-268 691,-70 8,-70"/>
</g>
<g id="clust2" class="cluster">
<title>cluster_AnalyseMixIntermaintModule_declarations</title>
<polygon fill="none" stroke="#000000" points="22,-78 22,-130 678,-130 678,-78 22,-78"/>
</g>
<g id="clust7" class="cluster">
<title>cluster_AnalyseMixIntermaintModule_exports</title>
<polygon fill="none" stroke="#000000" points="16,-208 16,-260 683,-260 683,-208 16,-208"/>
</g>
<!-- AnalyseInterventionComponent -->
<g id="node1" class="node">
<title>AnalyseInterventionComponent</title>
<polygon fill="#ffffb3" stroke="#000000" points="669.626,-122 474.374,-122 474.374,-86 669.626,-86 669.626,-122"/>
<text text-anchor="middle" x="572" y="-99.8" font-family="Times,serif" font-size="14.00" fill="#000000">AnalyseInterventionComponent</text>
</g>
<!-- AnalyseMixIntermaintModule -->
<g id="node4" class="node">
<title>AnalyseMixIntermaintModule</title>
<polygon fill="#8dd3c7" stroke="#000000" points="449.5688,-187 446.5688,-191 425.5688,-191 422.5688,-187 262.4312,-187 262.4312,-151 449.5688,-151 449.5688,-187"/>
<text text-anchor="middle" x="356" y="-164.8" font-family="Times,serif" font-size="14.00" fill="#000000">AnalyseMixIntermaintModule</text>
</g>
<!-- AnalyseInterventionComponent&#45;&gt;AnalyseMixIntermaintModule -->
<g id="edge1" class="edge">
<title>AnalyseInterventionComponent&#45;&gt;AnalyseMixIntermaintModule</title>
<path fill="none" stroke="#000000" d="M605.0209,-122.0225C605.0209,-139.3734 605.0209,-163 605.0209,-163 605.0209,-163 459.7893,-163 459.7893,-163"/>
<polygon fill="#000000" stroke="#000000" points="459.7893,-159.5001 449.7893,-163 459.7893,-166.5001 459.7893,-159.5001"/>
</g>
<!-- AnalyseMaintenanceComponent -->
<g id="node2" class="node">
<title>AnalyseMaintenanceComponent</title>
<polygon fill="#ffffb3" stroke="#000000" points="455.5028,-122 256.4972,-122 256.4972,-86 455.5028,-86 455.5028,-122"/>
<text text-anchor="middle" x="356" y="-99.8" font-family="Times,serif" font-size="14.00" fill="#000000">AnalyseMaintenanceComponent</text>
</g>
<!-- AnalyseMaintenanceComponent&#45;&gt;AnalyseMixIntermaintModule -->
<g id="edge2" class="edge">
<title>AnalyseMaintenanceComponent&#45;&gt;AnalyseMixIntermaintModule</title>
<path fill="none" stroke="#000000" d="M356,-122.1061C356,-122.1061 356,-140.991 356,-140.991"/>
<polygon fill="#000000" stroke="#000000" points="352.5001,-140.9909 356,-150.991 359.5001,-140.991 352.5001,-140.9909"/>
</g>
<!-- AnalyseMixIntermaintComponent -->
<g id="node3" class="node">
<title>AnalyseMixIntermaintComponent</title>
<polygon fill="#ffffb3" stroke="#000000" points="238.3515,-122 29.6485,-122 29.6485,-86 238.3515,-86 238.3515,-122"/>
<text text-anchor="middle" x="134" y="-99.8" font-family="Times,serif" font-size="14.00" fill="#000000">AnalyseMixIntermaintComponent</text>
</g>
<!-- AnalyseMixIntermaintComponent&#45;&gt;AnalyseMixIntermaintModule -->
<g id="edge3" class="edge">
<title>AnalyseMixIntermaintComponent&#45;&gt;AnalyseMixIntermaintModule</title>
<path fill="none" stroke="#000000" d="M167.3086,-122.0225C167.3086,-139.3734 167.3086,-163 167.3086,-163 167.3086,-163 252.2071,-163 252.2071,-163"/>
<polygon fill="#000000" stroke="#000000" points="252.2071,-166.5001 262.2071,-163 252.2071,-159.5001 252.2071,-166.5001"/>
</g>
<!-- AnalyseInterventionComponent  -->
<g id="node5" class="node">
<title>AnalyseInterventionComponent </title>
<polygon fill="#fb8072" stroke="#000000" points="674.6256,-252 475.3744,-252 475.3744,-216 674.6256,-216 674.6256,-252"/>
<text text-anchor="middle" x="575" y="-229.8" font-family="Times,serif" font-size="14.00" fill="#000000">AnalyseInterventionComponent </text>
</g>
<!-- AnalyseMixIntermaintModule&#45;&gt;AnalyseInterventionComponent  -->
<g id="edge4" class="edge">
<title>AnalyseMixIntermaintModule&#45;&gt;AnalyseInterventionComponent </title>
<path fill="none" stroke="#000000" stroke-dasharray="5,2" d="M449.7337,-175C495.2449,-175 540.2291,-175 540.2291,-175 540.2291,-175 540.2291,-205.9775 540.2291,-205.9775"/>
<polygon fill="#000000" stroke="#000000" points="536.7292,-205.9774 540.2291,-215.9775 543.7292,-205.9775 536.7292,-205.9774"/>
</g>
<!-- AnalyseMaintenanceComponent  -->
<g id="node6" class="node">
<title>AnalyseMaintenanceComponent </title>
<polygon fill="#fb8072" stroke="#000000" points="457.5022,-252 254.4978,-252 254.4978,-216 457.5022,-216 457.5022,-252"/>
<text text-anchor="middle" x="356" y="-229.8" font-family="Times,serif" font-size="14.00" fill="#000000">AnalyseMaintenanceComponent </text>
</g>
<!-- AnalyseMixIntermaintModule&#45;&gt;AnalyseMaintenanceComponent  -->
<g id="edge5" class="edge">
<title>AnalyseMixIntermaintModule&#45;&gt;AnalyseMaintenanceComponent </title>
<path fill="none" stroke="#000000" stroke-dasharray="5,2" d="M356,-187.1061C356,-187.1061 356,-205.991 356,-205.991"/>
<polygon fill="#000000" stroke="#000000" points="352.5001,-205.9909 356,-215.991 359.5001,-205.991 352.5001,-205.9909"/>
</g>
<!-- AnalyseMixIntermaintComponent  -->
<g id="node7" class="node">
<title>AnalyseMixIntermaintComponent </title>
<polygon fill="#fb8072" stroke="#000000" points="236.3517,-252 23.6483,-252 23.6483,-216 236.3517,-216 236.3517,-252"/>
<text text-anchor="middle" x="130" y="-229.8" font-family="Times,serif" font-size="14.00" fill="#000000">AnalyseMixIntermaintComponent </text>
</g>
<!-- AnalyseMixIntermaintModule&#45;&gt;AnalyseMixIntermaintComponent  -->
<g id="edge6" class="edge">
<title>AnalyseMixIntermaintModule&#45;&gt;AnalyseMixIntermaintComponent </title>
<path fill="none" stroke="#000000" stroke-dasharray="5,2" d="M262.2869,-175C188.6445,-175 98.4414,-175 98.4414,-175 98.4414,-175 98.4414,-205.9775 98.4414,-205.9775"/>
<polygon fill="#000000" stroke="#000000" points="94.9415,-205.9774 98.4414,-215.9775 101.9415,-205.9775 94.9415,-205.9774"/>
</g>
</g>
</svg>
