<?xml version="1.0" encoding="UTF-8" standalone="no"?>
<!DOCTYPE svg PUBLIC "-//W3C//DTD SVG 1.1//EN"
 "http://www.w3.org/Graphics/SVG/1.1/DTD/svg11.dtd">
<!-- Generated by graphviz version 2.40.1 (20161225.0304)
 -->
<!-- Title: dependencies Pages: 1 -->
<svg width="696pt" height="284pt"
 viewBox="0.00 0.00 696.00 284.00" xmlns="http://www.w3.org/2000/svg" xmlns:xlink="http://www.w3.org/1999/xlink">
<g id="graph0" class="graph" transform="scale(1 1) rotate(0) translate(4 280)">
<title>dependencies</title>
<polygon fill="#ffffff" stroke="transparent" points="-4,4 -4,-280 692,-280 692,4 -4,4"/>
<text text-anchor="start" x="323.0091" y="-42.4" font-family="sans-serif" font-weight="bold" font-size="14.00" fill="#000000">Legend</text>
<polygon fill="#ffffb3" stroke="transparent" points="110,-10 110,-30 130,-30 130,-10 110,-10"/>
<text text-anchor="start" x="133.629" y="-15.4" font-family="sans-serif" font-size="14.00" fill="#000000"> &#160;Declarations</text>
<polygon fill="#8dd3c7" stroke="transparent" points="223,-10 223,-30 243,-30 243,-10 223,-10"/>
<text text-anchor="start" x="246.7251" y="-15.4" font-family="sans-serif" font-size="14.00" fill="#000000"> &#160;Module</text>
<polygon fill="#80b1d3" stroke="transparent" points="309,-10 309,-30 329,-30 329,-10 309,-10"/>
<text text-anchor="start" x="332.7812" y="-15.4" font-family="sans-serif" font-size="14.00" fill="#000000"> &#160;Bootstrap</text>
<polygon fill="#fdb462" stroke="transparent" points="406,-10 406,-30 426,-30 426,-10 406,-10"/>
<text text-anchor="start" x="429.6732" y="-15.4" font-family="sans-serif" font-size="14.00" fill="#000000"> &#160;Providers</text>
<polygon fill="#fb8072" stroke="transparent" points="502,-10 502,-30 522,-30 522,-10 502,-10"/>
<text text-anchor="start" x="525.7258" y="-15.4" font-family="sans-serif" font-size="14.00" fill="#000000"> &#160;Exports</text>
<g id="clust1" class="cluster">
<title>cluster_AnalyseMixIntermaintModule</title>
<polygon fill="none" stroke="#000000" stroke-dasharray="1,5" points="8,-70 8,-268 680,-268 680,-70 8,-70"/>
</g>
<g id="clust2" class="cluster">
<title>cluster_AnalyseMixIntermaintModule_declarations</title>
<polygon fill="none" stroke="#000000" points="16,-78 16,-130 672,-130 672,-78 16,-78"/>
</g>
<g id="clust7" class="cluster">
<title>cluster_AnalyseMixIntermaintModule_exports</title>
<polygon fill="none" stroke="#000000" points="236,-208 236,-260 464,-260 464,-208 236,-208"/>
</g>
<!-- AnalyseInterventionComponent -->
<g id="node1" class="node">
<title>AnalyseInterventionComponent</title>
<polygon fill="#ffffb3" stroke="#000000" points="663.626,-122 468.374,-122 468.374,-86 663.626,-86 663.626,-122"/>
<text text-anchor="middle" x="566" y="-99.8" font-family="Times,serif" font-size="14.00" fill="#000000">AnalyseInterventionComponent</text>
</g>
<!-- AnalyseMixIntermaintModule -->
<g id="node4" class="node">
<title>AnalyseMixIntermaintModule</title>
<polygon fill="#8dd3c7" stroke="#000000" points="443.5688,-187 440.5688,-191 419.5688,-191 416.5688,-187 256.4312,-187 256.4312,-151 443.5688,-151 443.5688,-187"/>
<text text-anchor="middle" x="350" y="-164.8" font-family="Times,serif" font-size="14.00" fill="#000000">AnalyseMixIntermaintModule</text>
</g>
<!-- AnalyseInterventionComponent&#45;&gt;AnalyseMixIntermaintModule -->
<g id="edge1" class="edge">
<title>AnalyseInterventionComponent&#45;&gt;AnalyseMixIntermaintModule</title>
<path fill="none" stroke="#000000" d="M566,-122.1061C566,-141.3391 566,-169 566,-169 566,-169 453.7984,-169 453.7984,-169"/>
<polygon fill="#000000" stroke="#000000" points="453.7984,-165.5001 443.7984,-169 453.7983,-172.5001 453.7984,-165.5001"/>
</g>
<!-- AnalyseMaintenanceComponent -->
<g id="node2" class="node">
<title>AnalyseMaintenanceComponent</title>
<polygon fill="#ffffb3" stroke="#000000" points="449.5028,-122 250.4972,-122 250.4972,-86 449.5028,-86 449.5028,-122"/>
<text text-anchor="middle" x="350" y="-99.8" font-family="Times,serif" font-size="14.00" fill="#000000">AnalyseMaintenanceComponent</text>
</g>
<!-- AnalyseMaintenanceComponent&#45;&gt;AnalyseMixIntermaintModule -->
<g id="edge2" class="edge">
<title>AnalyseMaintenanceComponent&#45;&gt;AnalyseMixIntermaintModule</title>
<path fill="none" stroke="#000000" d="M350,-122.1061C350,-122.1061 350,-140.991 350,-140.991"/>
<polygon fill="#000000" stroke="#000000" points="346.5001,-140.9909 350,-150.991 353.5001,-140.991 346.5001,-140.9909"/>
</g>
<!-- AnalyseMixIntermaintComponent -->
<g id="node3" class="node">
<title>AnalyseMixIntermaintComponent</title>
<polygon fill="#ffffb3" stroke="#000000" points="232.3515,-122 23.6485,-122 23.6485,-86 232.3515,-86 232.3515,-122"/>
<text text-anchor="middle" x="128" y="-99.8" font-family="Times,serif" font-size="14.00" fill="#000000">AnalyseMixIntermaintComponent</text>
</g>
<!-- AnalyseMixIntermaintComponent&#45;&gt;AnalyseMixIntermaintModule -->
<g id="edge3" class="edge">
<title>AnalyseMixIntermaintComponent&#45;&gt;AnalyseMixIntermaintModule</title>
<path fill="none" stroke="#000000" d="M128,-122.1061C128,-141.3391 128,-169 128,-169 128,-169 246.1738,-169 246.1738,-169"/>
<polygon fill="#000000" stroke="#000000" points="246.1738,-172.5001 256.1738,-169 246.1738,-165.5001 246.1738,-172.5001"/>
</g>
<!-- AnalyseMixIntermaintComponent  -->
<g id="node5" class="node">
<title>AnalyseMixIntermaintComponent </title>
<polygon fill="#fb8072" stroke="#000000" points="456.3517,-252 243.6483,-252 243.6483,-216 456.3517,-216 456.3517,-252"/>
<text text-anchor="middle" x="350" y="-229.8" font-family="Times,serif" font-size="14.00" fill="#000000">AnalyseMixIntermaintComponent </text>
</g>
<!-- AnalyseMixIntermaintModule&#45;&gt;AnalyseMixIntermaintComponent  -->
<g id="edge4" class="edge">
<title>AnalyseMixIntermaintModule&#45;&gt;AnalyseMixIntermaintComponent </title>
<path fill="none" stroke="#000000" stroke-dasharray="5,2" d="M350,-187.1061C350,-187.1061 350,-205.991 350,-205.991"/>
<polygon fill="#000000" stroke="#000000" points="346.5001,-205.9909 350,-215.991 353.5001,-205.991 346.5001,-205.9909"/>
</g>
</g>
</svg>
