<?xml version="1.0" encoding="UTF-8" standalone="no"?>
<!DOCTYPE svg PUBLIC "-//W3C//DTD SVG 1.1//EN"
 "http://www.w3.org/Graphics/SVG/1.1/DTD/svg11.dtd">
<!-- Generated by graphviz version 2.40.1 (20161225.0304)
 -->
<!-- Title: dependencies Pages: 1 -->
<svg width="1267pt" height="349pt"
 viewBox="0.00 0.00 1267.00 349.00" xmlns="http://www.w3.org/2000/svg" xmlns:xlink="http://www.w3.org/1999/xlink">
<g id="graph0" class="graph" transform="scale(1 1) rotate(0) translate(4 345)">
<title>dependencies</title>
<polygon fill="#ffffff" stroke="transparent" points="-4,4 -4,-345 1263,-345 1263,4 -4,4"/>
<text text-anchor="start" x="608.5091" y="-42.4" font-family="sans-serif" font-weight="bold" font-size="14.00" fill="#000000">Legend</text>
<polygon fill="#ffffb3" stroke="transparent" points="395.5,-10 395.5,-30 415.5,-30 415.5,-10 395.5,-10"/>
<text text-anchor="start" x="419.129" y="-15.4" font-family="sans-serif" font-size="14.00" fill="#000000"> &#160;Declarations</text>
<polygon fill="#8dd3c7" stroke="transparent" points="508.5,-10 508.5,-30 528.5,-30 528.5,-10 508.5,-10"/>
<text text-anchor="start" x="532.2251" y="-15.4" font-family="sans-serif" font-size="14.00" fill="#000000"> &#160;Module</text>
<polygon fill="#80b1d3" stroke="transparent" points="594.5,-10 594.5,-30 614.5,-30 614.5,-10 594.5,-10"/>
<text text-anchor="start" x="618.2812" y="-15.4" font-family="sans-serif" font-size="14.00" fill="#000000"> &#160;Bootstrap</text>
<polygon fill="#fdb462" stroke="transparent" points="691.5,-10 691.5,-30 711.5,-30 711.5,-10 691.5,-10"/>
<text text-anchor="start" x="715.1732" y="-15.4" font-family="sans-serif" font-size="14.00" fill="#000000"> &#160;Providers</text>
<polygon fill="#fb8072" stroke="transparent" points="787.5,-10 787.5,-30 807.5,-30 807.5,-10 787.5,-10"/>
<text text-anchor="start" x="811.2258" y="-15.4" font-family="sans-serif" font-size="14.00" fill="#000000"> &#160;Exports</text>
<g id="clust1" class="cluster">
<title>cluster_InterventionsModule</title>
<polygon fill="none" stroke="#000000" stroke-dasharray="1,5" points="8,-70 8,-333 1251,-333 1251,-70 8,-70"/>
</g>
<g id="clust2" class="cluster">
<title>cluster_InterventionsModule_declarations</title>
<polygon fill="none" stroke="#000000" points="424,-143 424,-195 1243,-195 1243,-143 424,-143"/>
</g>
<g id="clust4" class="cluster">
<title>cluster_InterventionsModule_InterventionsComponent_providers</title>
<polygon fill="none" stroke="#000000" points="823,-78 823,-130 1031,-130 1031,-78 823,-78"/>
</g>
<g id="clust7" class="cluster">
<title>cluster_InterventionsModule_imports</title>
<polygon fill="none" stroke="#000000" points="16,-143 16,-195 416,-195 416,-143 16,-143"/>
</g>
<g id="clust8" class="cluster">
<title>cluster_InterventionsModule_exports</title>
<polygon fill="none" stroke="#000000" points="415,-273 415,-325 855,-325 855,-273 415,-273"/>
</g>
<!-- FormulaireInterventionComponent -->
<g id="node1" class="node">
<title>FormulaireInterventionComponent</title>
<polygon fill="#ffffb3" stroke="#000000" points="1234.9594,-187 1023.0406,-187 1023.0406,-151 1234.9594,-151 1234.9594,-187"/>
<text text-anchor="middle" x="1129" y="-164.8" font-family="Times,serif" font-size="14.00" fill="#000000">FormulaireInterventionComponent</text>
</g>
<!-- InterventionsModule -->
<g id="node5" class="node">
<title>InterventionsModule</title>
<polygon fill="#8dd3c7" stroke="#000000" points="707.9173,-252 704.9173,-256 683.9173,-256 680.9173,-252 574.0827,-252 574.0827,-216 707.9173,-216 707.9173,-252"/>
<text text-anchor="middle" x="641" y="-229.8" font-family="Times,serif" font-size="14.00" fill="#000000">InterventionsModule</text>
</g>
<!-- FormulaireInterventionComponent&#45;&gt;InterventionsModule -->
<g id="edge1" class="edge">
<title>FormulaireInterventionComponent&#45;&gt;InterventionsModule</title>
<path fill="none" stroke="#000000" d="M1129,-187.2843C1129,-208.3211 1129,-240 1129,-240 1129,-240 717.8311,-240 717.8311,-240"/>
<polygon fill="#000000" stroke="#000000" points="717.8311,-236.5001 707.8311,-240 717.8311,-243.5001 717.8311,-236.5001"/>
</g>
<!-- InterventionsComponent -->
<g id="node2" class="node">
<title>InterventionsComponent</title>
<polygon fill="#ffffb3" stroke="#000000" points="1004.6993,-187 849.3007,-187 849.3007,-151 1004.6993,-151 1004.6993,-187"/>
<text text-anchor="middle" x="927" y="-164.8" font-family="Times,serif" font-size="14.00" fill="#000000">InterventionsComponent</text>
</g>
<!-- InterventionsComponent&#45;&gt;InterventionsModule -->
<g id="edge2" class="edge">
<title>InterventionsComponent&#45;&gt;InterventionsModule</title>
<path fill="none" stroke="#000000" d="M927,-187.0225C927,-204.3734 927,-228 927,-228 927,-228 718.0543,-228 718.0543,-228"/>
<polygon fill="#000000" stroke="#000000" points="718.0543,-224.5001 708.0543,-228 718.0543,-231.5001 718.0543,-224.5001"/>
</g>
<!-- ListInterventionComponent -->
<g id="node3" class="node">
<title>ListInterventionComponent</title>
<polygon fill="#ffffb3" stroke="#000000" points="831.5336,-187 660.4664,-187 660.4664,-151 831.5336,-151 831.5336,-187"/>
<text text-anchor="middle" x="746" y="-164.8" font-family="Times,serif" font-size="14.00" fill="#000000">ListInterventionComponent</text>
</g>
<!-- ListInterventionComponent&#45;&gt;InterventionsModule -->
<g id="edge4" class="edge">
<title>ListInterventionComponent&#45;&gt;InterventionsModule</title>
<path fill="none" stroke="#000000" d="M683.9709,-187.1061C683.9709,-187.1061 683.9709,-205.991 683.9709,-205.991"/>
<polygon fill="#000000" stroke="#000000" points="680.471,-205.9909 683.9709,-215.991 687.471,-205.991 680.471,-205.9909"/>
</g>
<!-- ResolutionInterventionComponent -->
<g id="node4" class="node">
<title>ResolutionInterventionComponent</title>
<polygon fill="#ffffb3" stroke="#000000" points="642.4226,-187 431.5774,-187 431.5774,-151 642.4226,-151 642.4226,-187"/>
<text text-anchor="middle" x="537" y="-164.8" font-family="Times,serif" font-size="14.00" fill="#000000">ResolutionInterventionComponent</text>
</g>
<!-- ResolutionInterventionComponent&#45;&gt;InterventionsModule -->
<g id="edge5" class="edge">
<title>ResolutionInterventionComponent&#45;&gt;InterventionsModule</title>
<path fill="none" stroke="#000000" d="M608.2514,-187.1061C608.2514,-187.1061 608.2514,-205.991 608.2514,-205.991"/>
<polygon fill="#000000" stroke="#000000" points="604.7515,-205.9909 608.2514,-215.991 611.7515,-205.991 604.7515,-205.9909"/>
</g>
<!-- AnalyseMixIntermaintModule  -->
<g id="node9" class="node">
<title>AnalyseMixIntermaintModule </title>
<polygon fill="#fb8072" stroke="#000000" points="847.0693,-317 656.9307,-317 656.9307,-281 847.0693,-281 847.0693,-317"/>
<text text-anchor="middle" x="752" y="-294.8" font-family="Times,serif" font-size="14.00" fill="#000000">AnalyseMixIntermaintModule </text>
</g>
<!-- InterventionsModule&#45;&gt;AnalyseMixIntermaintModule  -->
<g id="edge8" class="edge">
<title>InterventionsModule&#45;&gt;AnalyseMixIntermaintModule </title>
<path fill="none" stroke="#000000" stroke-dasharray="5,2" d="M682.212,-252.1061C682.212,-252.1061 682.212,-270.991 682.212,-270.991"/>
<polygon fill="#000000" stroke="#000000" points="678.712,-270.9909 682.212,-280.991 685.712,-270.991 678.712,-270.9909"/>
</g>
<!-- FormulaireInterventionComponent  -->
<g id="node10" class="node">
<title>FormulaireInterventionComponent </title>
<polygon fill="#fb8072" stroke="#000000" points="638.9599,-317 423.0401,-317 423.0401,-281 638.9599,-281 638.9599,-317"/>
<text text-anchor="middle" x="531" y="-294.8" font-family="Times,serif" font-size="14.00" fill="#000000">FormulaireInterventionComponent </text>
</g>
<!-- InterventionsModule&#45;&gt;FormulaireInterventionComponent  -->
<g id="edge9" class="edge">
<title>InterventionsModule&#45;&gt;FormulaireInterventionComponent </title>
<path fill="none" stroke="#000000" stroke-dasharray="5,2" d="M606.5107,-252.1061C606.5107,-252.1061 606.5107,-270.991 606.5107,-270.991"/>
<polygon fill="#000000" stroke="#000000" points="603.0108,-270.9909 606.5107,-280.991 610.0108,-270.991 603.0108,-270.9909"/>
</g>
<!-- Ng6OdooRPCService -->
<g id="node6" class="node">
<title>Ng6OdooRPCService</title>
<ellipse fill="#fdb462" stroke="#000000" cx="927" cy="-104" rx="96.1517" ry="18"/>
<text text-anchor="middle" x="927" y="-99.8" font-family="Times,serif" font-size="14.00" fill="#000000">Ng6OdooRPCService</text>
</g>
<!-- Ng6OdooRPCService&#45;&gt;InterventionsComponent -->
<g id="edge3" class="edge">
<title>Ng6OdooRPCService&#45;&gt;InterventionsComponent</title>
<path fill="none" stroke="#000000" d="M927,-122.1061C927,-122.1061 927,-140.991 927,-140.991"/>
<polygon fill="#000000" stroke="#000000" points="923.5001,-140.9909 927,-150.991 930.5001,-140.991 923.5001,-140.9909"/>
</g>
<!-- AnalyseMixIntermaintModule -->
<g id="node7" class="node">
<title>AnalyseMixIntermaintModule</title>
<polygon fill="#8dd3c7" stroke="#000000" points="407.5688,-187 404.5688,-191 383.5688,-191 380.5688,-187 220.4312,-187 220.4312,-151 407.5688,-151 407.5688,-187"/>
<text text-anchor="middle" x="314" y="-164.8" font-family="Times,serif" font-size="14.00" fill="#000000">AnalyseMixIntermaintModule</text>
</g>
<!-- AnalyseMixIntermaintModule&#45;&gt;InterventionsModule -->
<g id="edge6" class="edge">
<title>AnalyseMixIntermaintModule&#45;&gt;InterventionsModule</title>
<path fill="none" stroke="#000000" d="M314,-187.0225C314,-204.3734 314,-228 314,-228 314,-228 564.0376,-228 564.0376,-228"/>
<polygon fill="#000000" stroke="#000000" points="564.0376,-231.5001 574.0376,-228 564.0376,-224.5001 564.0376,-231.5001"/>
</g>
<!-- InterventionsRoutingModule -->
<g id="node8" class="node">
<title>InterventionsRoutingModule</title>
<polygon fill="#8dd3c7" stroke="#000000" points="202.035,-187 199.035,-191 178.035,-191 175.035,-187 23.965,-187 23.965,-151 202.035,-151 202.035,-187"/>
<text text-anchor="middle" x="113" y="-164.8" font-family="Times,serif" font-size="14.00" fill="#000000">InterventionsRoutingModule</text>
</g>
<!-- InterventionsRoutingModule&#45;&gt;InterventionsModule -->
<g id="edge7" class="edge">
<title>InterventionsRoutingModule&#45;&gt;InterventionsModule</title>
<path fill="none" stroke="#000000" d="M113,-187.2843C113,-208.3211 113,-240 113,-240 113,-240 564.1284,-240 564.1284,-240"/>
<polygon fill="#000000" stroke="#000000" points="564.1285,-243.5001 574.1284,-240 564.1284,-236.5001 564.1285,-243.5001"/>
</g>
</g>
</svg>
