<?xml version="1.0" encoding="UTF-8" standalone="no"?>
<!DOCTYPE svg PUBLIC "-//W3C//DTD SVG 1.1//EN"
 "http://www.w3.org/Graphics/SVG/1.1/DTD/svg11.dtd">
<!-- Generated by graphviz version 2.40.1 (20161225.0304)
 -->
<!-- Title: dependencies Pages: 1 -->
<svg width="1267pt" height="211pt"
 viewBox="0.00 0.00 1267.00 211.00" xmlns="http://www.w3.org/2000/svg" xmlns:xlink="http://www.w3.org/1999/xlink">
<g id="graph0" class="graph" transform="scale(1 1) rotate(0) translate(4 207)">
<title>dependencies</title>
<polygon fill="#ffffff" stroke="transparent" points="-4,4 -4,-207 1263,-207 1263,4 -4,4"/>
<text text-anchor="start" x="608.5091" y="-42.4" font-family="sans-serif" font-weight="bold" font-size="14.00" fill="#000000">Legend</text>
<polygon fill="#ffffb3" stroke="transparent" points="395.5,-10 395.5,-30 415.5,-30 415.5,-10 395.5,-10"/>
<text text-anchor="start" x="419.129" y="-15.4" font-family="sans-serif" font-size="14.00" fill="#000000"> &#160;Declarations</text>
<polygon fill="#8dd3c7" stroke="transparent" points="508.5,-10 508.5,-30 528.5,-30 528.5,-10 508.5,-10"/>
<text text-anchor="start" x="532.2251" y="-15.4" font-family="sans-serif" font-size="14.00" fill="#000000"> &#160;Module</text>
<polygon fill="#80b1d3" stroke="transparent" points="594.5,-10 594.5,-30 614.5,-30 614.5,-10 594.5,-10"/>
<text text-anchor="start" x="618.2812" y="-15.4" font-family="sans-serif" font-size="14.00" fill="#000000"> &#160;Bootstrap</text>
<polygon fill="#fdb462" stroke="transparent" points="691.5,-10 691.5,-30 711.5,-30 711.5,-10 691.5,-10"/>
<text text-anchor="start" x="715.1732" y="-15.4" font-family="sans-serif" font-size="14.00" fill="#000000"> &#160;Providers</text>
<polygon fill="#fb8072" stroke="transparent" points="787.5,-10 787.5,-30 807.5,-30 807.5,-10 787.5,-10"/>
<text text-anchor="start" x="811.2258" y="-15.4" font-family="sans-serif" font-size="14.00" fill="#000000"> &#160;Exports</text>
<g id="clust1" class="cluster">
<title>cluster_InterventionsModule</title>
<polygon fill="none" stroke="#000000" stroke-dasharray="1,5" points="8,-70 8,-195 1251,-195 1251,-70 8,-70"/>
</g>
<g id="clust2" class="cluster">
<title>cluster_InterventionsModule_declarations</title>
<polygon fill="none" stroke="#000000" points="424,-78 424,-130 1243,-130 1243,-78 424,-78"/>
</g>
<g id="clust7" class="cluster">
<title>cluster_InterventionsModule_imports</title>
<polygon fill="none" stroke="#000000" points="16,-78 16,-130 416,-130 416,-78 16,-78"/>
</g>
<!-- FormulaireInterventionComponent -->
<g id="node1" class="node">
<title>FormulaireInterventionComponent</title>
<polygon fill="#ffffb3" stroke="#000000" points="1234.9594,-122 1023.0406,-122 1023.0406,-86 1234.9594,-86 1234.9594,-122"/>
<text text-anchor="middle" x="1129" y="-99.8" font-family="Times,serif" font-size="14.00" fill="#000000">FormulaireInterventionComponent</text>
</g>
<!-- InterventionsModule -->
<g id="node5" class="node">
<title>InterventionsModule</title>
<polygon fill="#8dd3c7" stroke="#000000" points="707.9173,-187 704.9173,-191 683.9173,-191 680.9173,-187 574.0827,-187 574.0827,-151 707.9173,-151 707.9173,-187"/>
<text text-anchor="middle" x="641" y="-164.8" font-family="Times,serif" font-size="14.00" fill="#000000">InterventionsModule</text>
</g>
<!-- FormulaireInterventionComponent&#45;&gt;InterventionsModule -->
<g id="edge1" class="edge">
<title>FormulaireInterventionComponent&#45;&gt;InterventionsModule</title>
<path fill="none" stroke="#000000" d="M1129,-122.2843C1129,-143.3211 1129,-175 1129,-175 1129,-175 717.8311,-175 717.8311,-175"/>
<polygon fill="#000000" stroke="#000000" points="717.8311,-171.5001 707.8311,-175 717.8311,-178.5001 717.8311,-171.5001"/>
</g>
<!-- InterventionsComponent -->
<g id="node2" class="node">
<title>InterventionsComponent</title>
<polygon fill="#ffffb3" stroke="#000000" points="1004.6993,-122 849.3007,-122 849.3007,-86 1004.6993,-86 1004.6993,-122"/>
<text text-anchor="middle" x="927" y="-99.8" font-family="Times,serif" font-size="14.00" fill="#000000">InterventionsComponent</text>
</g>
<!-- InterventionsComponent&#45;&gt;InterventionsModule -->
<g id="edge2" class="edge">
<title>InterventionsComponent&#45;&gt;InterventionsModule</title>
<path fill="none" stroke="#000000" d="M927,-122.0225C927,-139.3734 927,-163 927,-163 927,-163 718.0543,-163 718.0543,-163"/>
<polygon fill="#000000" stroke="#000000" points="718.0543,-159.5001 708.0543,-163 718.0543,-166.5001 718.0543,-159.5001"/>
</g>
<!-- ListInterventionComponent -->
<g id="node3" class="node">
<title>ListInterventionComponent</title>
<polygon fill="#ffffb3" stroke="#000000" points="831.5336,-122 660.4664,-122 660.4664,-86 831.5336,-86 831.5336,-122"/>
<text text-anchor="middle" x="746" y="-99.8" font-family="Times,serif" font-size="14.00" fill="#000000">ListInterventionComponent</text>
</g>
<!-- ListInterventionComponent&#45;&gt;InterventionsModule -->
<g id="edge3" class="edge">
<title>ListInterventionComponent&#45;&gt;InterventionsModule</title>
<path fill="none" stroke="#000000" d="M683.9709,-122.1061C683.9709,-122.1061 683.9709,-140.991 683.9709,-140.991"/>
<polygon fill="#000000" stroke="#000000" points="680.471,-140.9909 683.9709,-150.991 687.471,-140.991 680.471,-140.9909"/>
</g>
<!-- ResolutionInterventionComponent -->
<g id="node4" class="node">
<title>ResolutionInterventionComponent</title>
<polygon fill="#ffffb3" stroke="#000000" points="642.4226,-122 431.5774,-122 431.5774,-86 642.4226,-86 642.4226,-122"/>
<text text-anchor="middle" x="537" y="-99.8" font-family="Times,serif" font-size="14.00" fill="#000000">ResolutionInterventionComponent</text>
</g>
<!-- ResolutionInterventionComponent&#45;&gt;InterventionsModule -->
<g id="edge4" class="edge">
<title>ResolutionInterventionComponent&#45;&gt;InterventionsModule</title>
<path fill="none" stroke="#000000" d="M608.2514,-122.1061C608.2514,-122.1061 608.2514,-140.991 608.2514,-140.991"/>
<polygon fill="#000000" stroke="#000000" points="604.7515,-140.9909 608.2514,-150.991 611.7515,-140.991 604.7515,-140.9909"/>
</g>
<!-- AnalyseMixIntermaintModule -->
<g id="node6" class="node">
<title>AnalyseMixIntermaintModule</title>
<polygon fill="#8dd3c7" stroke="#000000" points="407.5688,-122 404.5688,-126 383.5688,-126 380.5688,-122 220.4312,-122 220.4312,-86 407.5688,-86 407.5688,-122"/>
<text text-anchor="middle" x="314" y="-99.8" font-family="Times,serif" font-size="14.00" fill="#000000">AnalyseMixIntermaintModule</text>
</g>
<!-- AnalyseMixIntermaintModule&#45;&gt;InterventionsModule -->
<g id="edge5" class="edge">
<title>AnalyseMixIntermaintModule&#45;&gt;InterventionsModule</title>
<path fill="none" stroke="#000000" d="M314,-122.0225C314,-139.3734 314,-163 314,-163 314,-163 564.0376,-163 564.0376,-163"/>
<polygon fill="#000000" stroke="#000000" points="564.0376,-166.5001 574.0376,-163 564.0376,-159.5001 564.0376,-166.5001"/>
</g>
<!-- InterventionsRoutingModule -->
<g id="node7" class="node">
<title>InterventionsRoutingModule</title>
<polygon fill="#8dd3c7" stroke="#000000" points="202.035,-122 199.035,-126 178.035,-126 175.035,-122 23.965,-122 23.965,-86 202.035,-86 202.035,-122"/>
<text text-anchor="middle" x="113" y="-99.8" font-family="Times,serif" font-size="14.00" fill="#000000">InterventionsRoutingModule</text>
</g>
<!-- InterventionsRoutingModule&#45;&gt;InterventionsModule -->
<g id="edge6" class="edge">
<title>InterventionsRoutingModule&#45;&gt;InterventionsModule</title>
<path fill="none" stroke="#000000" d="M113,-122.2843C113,-143.3211 113,-175 113,-175 113,-175 564.1284,-175 564.1284,-175"/>
<polygon fill="#000000" stroke="#000000" points="564.1285,-178.5001 574.1284,-175 564.1284,-171.5001 564.1285,-178.5001"/>
</g>
</g>
</svg>
