<?xml version="1.0" encoding="UTF-8" standalone="no"?>
<!DOCTYPE svg PUBLIC "-//W3C//DTD SVG 1.1//EN"
 "http://www.w3.org/Graphics/SVG/1.1/DTD/svg11.dtd">
<!-- Generated by graphviz version 2.40.1 (20161225.0304)
 -->
<!-- Title: dependencies Pages: 1 -->
<svg width="4283pt" height="428pt"
 viewBox="0.00 0.00 4283.00 428.00" xmlns="http://www.w3.org/2000/svg" xmlns:xlink="http://www.w3.org/1999/xlink">
<g id="graph0" class="graph" transform="scale(1 1) rotate(0) translate(4 424)">
<title>dependencies</title>
<polygon fill="#ffffff" stroke="transparent" points="-4,4 -4,-424 4279,-424 4279,4 -4,4"/>
<text text-anchor="start" x="2116.5091" y="-42.4" font-family="sans-serif" font-weight="bold" font-size="14.00" fill="#000000">Legend</text>
<polygon fill="#ffffb3" stroke="transparent" points="1903.5,-10 1903.5,-30 1923.5,-30 1923.5,-10 1903.5,-10"/>
<text text-anchor="start" x="1927.129" y="-15.4" font-family="sans-serif" font-size="14.00" fill="#000000"> &#160;Declarations</text>
<polygon fill="#8dd3c7" stroke="transparent" points="2016.5,-10 2016.5,-30 2036.5,-30 2036.5,-10 2016.5,-10"/>
<text text-anchor="start" x="2040.2251" y="-15.4" font-family="sans-serif" font-size="14.00" fill="#000000"> &#160;Module</text>
<polygon fill="#80b1d3" stroke="transparent" points="2102.5,-10 2102.5,-30 2122.5,-30 2122.5,-10 2102.5,-10"/>
<text text-anchor="start" x="2126.2812" y="-15.4" font-family="sans-serif" font-size="14.00" fill="#000000"> &#160;Bootstrap</text>
<polygon fill="#fdb462" stroke="transparent" points="2199.5,-10 2199.5,-30 2219.5,-30 2219.5,-10 2199.5,-10"/>
<text text-anchor="start" x="2223.1732" y="-15.4" font-family="sans-serif" font-size="14.00" fill="#000000"> &#160;Providers</text>
<polygon fill="#fb8072" stroke="transparent" points="2295.5,-10 2295.5,-30 2315.5,-30 2315.5,-10 2295.5,-10"/>
<text text-anchor="start" x="2319.2258" y="-15.4" font-family="sans-serif" font-size="14.00" fill="#000000"> &#160;Exports</text>
<g id="clust1" class="cluster">
<title>cluster_AnalyseMixIntermaintModule</title>
<polygon fill="none" stroke="#000000" stroke-dasharray="1,5" points="8,-70 8,-282 680,-282 680,-70 8,-70"/>
</g>
<g id="clust2" class="cluster">
<title>cluster_AnalyseMixIntermaintModule_declarations</title>
<polygon fill="none" stroke="#000000" points="16,-78 16,-130 672,-130 672,-78 16,-78"/>
</g>
<g id="clust7" class="cluster">
<title>cluster_AnalyseMixIntermaintModule_exports</title>
<polygon fill="none" stroke="#000000" points="340,-222 340,-274 568,-274 568,-222 340,-222"/>
</g>
<g id="clust16" class="cluster">
<title>cluster_AppModule</title>
<polygon fill="none" stroke="#000000" stroke-dasharray="1,5" points="2037,-214 2037,-412 3972,-412 3972,-214 2037,-214"/>
</g>
<g id="clust17" class="cluster">
<title>cluster_AppModule_declarations</title>
<polygon fill="none" stroke="#000000" points="3154,-222 3154,-274 3964,-274 3964,-222 3154,-222"/>
</g>
<g id="clust24" class="cluster">
<title>cluster_AppModule_imports</title>
<polygon fill="none" stroke="#000000" points="2215,-222 2215,-274 3146,-274 3146,-222 2215,-222"/>
</g>
<g id="clust26" class="cluster">
<title>cluster_AppModule_bootstrap</title>
<polygon fill="none" stroke="#000000" points="2948,-352 2948,-404 3072,-404 3072,-352 2948,-352"/>
</g>
<g id="clust27" class="cluster">
<title>cluster_AppModule_providers</title>
<polygon fill="none" stroke="#000000" points="2045,-222 2045,-274 2207,-274 2207,-222 2045,-222"/>
</g>
<g id="clust34" class="cluster">
<title>cluster_HistoricModule</title>
<polygon fill="none" stroke="#000000" stroke-dasharray="1,5" points="688,-138 688,-206 1064,-206 1064,-138 688,-138"/>
</g>
<g id="clust35" class="cluster">
<title>cluster_HistoricModule_declarations</title>
<polygon fill="none" stroke="#000000" points="870,-146 870,-198 1056,-198 1056,-146 870,-146"/>
</g>
<g id="clust37" class="cluster">
<title>cluster_HistoricModule_imports</title>
<polygon fill="none" stroke="#000000" points="696,-146 696,-198 862,-198 862,-146 696,-146"/>
</g>
<g id="clust47" class="cluster">
<title>cluster_InterventionsModule</title>
<polygon fill="none" stroke="#000000" stroke-dasharray="1,5" points="1072,-138 1072,-206 2109,-206 2109,-138 1072,-138"/>
</g>
<g id="clust48" class="cluster">
<title>cluster_InterventionsModule_declarations</title>
<polygon fill="none" stroke="#000000" points="1282,-146 1282,-198 2101,-198 2101,-146 1282,-146"/>
</g>
<g id="clust53" class="cluster">
<title>cluster_InterventionsModule_imports</title>
<polygon fill="none" stroke="#000000" points="1080,-146 1080,-198 1274,-198 1274,-146 1080,-146"/>
</g>
<g id="clust63" class="cluster">
<title>cluster_MaintenancesModule</title>
<polygon fill="none" stroke="#000000" stroke-dasharray="1,5" points="2117,-138 2117,-206 2834,-206 2834,-138 2117,-138"/>
</g>
<g id="clust64" class="cluster">
<title>cluster_MaintenancesModule_declarations</title>
<polygon fill="none" stroke="#000000" points="2125,-146 2125,-198 2620,-198 2620,-146 2125,-146"/>
</g>
<g id="clust68" class="cluster">
<title>cluster_MaintenancesModule_imports</title>
<polygon fill="none" stroke="#000000" points="2628,-146 2628,-198 2826,-198 2826,-146 2628,-146"/>
</g>
<g id="clust78" class="cluster">
<title>cluster_SettingsModule</title>
<polygon fill="none" stroke="#000000" stroke-dasharray="1,5" points="2842,-138 2842,-206 3476,-206 3476,-138 2842,-138"/>
</g>
<g id="clust79" class="cluster">
<title>cluster_SettingsModule_declarations</title>
<polygon fill="none" stroke="#000000" points="3024,-146 3024,-198 3468,-198 3468,-146 3024,-146"/>
</g>
<g id="clust83" class="cluster">
<title>cluster_SettingsModule_imports</title>
<polygon fill="none" stroke="#000000" points="2850,-146 2850,-198 3016,-198 3016,-146 2850,-146"/>
</g>
<g id="clust93" class="cluster">
<title>cluster_StoragesModule</title>
<polygon fill="none" stroke="#000000" stroke-dasharray="1,5" points="3484,-138 3484,-206 3822,-206 3822,-138 3484,-138"/>
</g>
<g id="clust94" class="cluster">
<title>cluster_StoragesModule_declarations</title>
<polygon fill="none" stroke="#000000" points="3668,-146 3668,-198 3814,-198 3814,-146 3668,-146"/>
</g>
<g id="clust96" class="cluster">
<title>cluster_StoragesModule_imports</title>
<polygon fill="none" stroke="#000000" points="3492,-146 3492,-198 3660,-198 3660,-146 3492,-146"/>
</g>
<g id="clust106" class="cluster">
<title>cluster_UsersModule</title>
<polygon fill="none" stroke="#000000" stroke-dasharray="1,5" points="3830,-138 3830,-206 4267,-206 4267,-138 3830,-138"/>
</g>
<g id="clust107" class="cluster">
<title>cluster_UsersModule_declarations</title>
<polygon fill="none" stroke="#000000" points="3998,-146 3998,-198 4259,-198 4259,-146 3998,-146"/>
</g>
<g id="clust110" class="cluster">
<title>cluster_UsersModule_imports</title>
<polygon fill="none" stroke="#000000" points="3838,-146 3838,-198 3990,-198 3990,-146 3838,-146"/>
</g>
<!-- AnalyseInterventionComponent -->
<g id="node1" class="node">
<title>AnalyseInterventionComponent</title>
<polygon fill="#ffffb3" stroke="#000000" points="663.626,-122 468.374,-122 468.374,-86 663.626,-86 663.626,-122"/>
<text text-anchor="middle" x="566" y="-99.8" font-family="Times,serif" font-size="14.00" fill="#000000">AnalyseInterventionComponent</text>
</g>
<!-- AnalyseMixIntermaintModule -->
<g id="node4" class="node">
<title>AnalyseMixIntermaintModule</title>
<polygon fill="#8dd3c7" stroke="#000000" points="547.5688,-190 544.5688,-194 523.5688,-194 520.5688,-190 360.4312,-190 360.4312,-154 547.5688,-154 547.5688,-190"/>
<text text-anchor="middle" x="454" y="-167.8" font-family="Times,serif" font-size="14.00" fill="#000000">AnalyseMixIntermaintModule</text>
</g>
<!-- AnalyseInterventionComponent&#45;&gt;AnalyseMixIntermaintModule -->
<g id="edge1" class="edge">
<title>AnalyseInterventionComponent&#45;&gt;AnalyseMixIntermaintModule</title>
<path fill="none" stroke="#000000" d="M507.8608,-122.2228C507.8608,-122.2228 507.8608,-143.7269 507.8608,-143.7269"/>
<polygon fill="#000000" stroke="#000000" points="504.3609,-143.7269 507.8608,-153.7269 511.3609,-143.727 504.3609,-143.7269"/>
</g>
<!-- AnalyseMaintenanceComponent -->
<g id="node2" class="node">
<title>AnalyseMaintenanceComponent</title>
<polygon fill="#ffffb3" stroke="#000000" points="449.5028,-122 250.4972,-122 250.4972,-86 449.5028,-86 449.5028,-122"/>
<text text-anchor="middle" x="350" y="-99.8" font-family="Times,serif" font-size="14.00" fill="#000000">AnalyseMaintenanceComponent</text>
</g>
<!-- AnalyseMaintenanceComponent&#45;&gt;AnalyseMixIntermaintModule -->
<g id="edge2" class="edge">
<title>AnalyseMaintenanceComponent&#45;&gt;AnalyseMixIntermaintModule</title>
<path fill="none" stroke="#000000" d="M405.1083,-122.2228C405.1083,-122.2228 405.1083,-143.7269 405.1083,-143.7269"/>
<polygon fill="#000000" stroke="#000000" points="401.6084,-143.7269 405.1083,-153.7269 408.6084,-143.727 401.6084,-143.7269"/>
</g>
<!-- AnalyseMixIntermaintComponent -->
<g id="node3" class="node">
<title>AnalyseMixIntermaintComponent</title>
<polygon fill="#ffffb3" stroke="#000000" points="232.3515,-122 23.6485,-122 23.6485,-86 232.3515,-86 232.3515,-122"/>
<text text-anchor="middle" x="128" y="-99.8" font-family="Times,serif" font-size="14.00" fill="#000000">AnalyseMixIntermaintComponent</text>
</g>
<!-- AnalyseMixIntermaintComponent&#45;&gt;AnalyseMixIntermaintModule -->
<g id="edge3" class="edge">
<title>AnalyseMixIntermaintComponent&#45;&gt;AnalyseMixIntermaintModule</title>
<path fill="none" stroke="#000000" d="M128,-122.2228C128,-142.3652 128,-172 128,-172 128,-172 350.1447,-172 350.1447,-172"/>
<polygon fill="#000000" stroke="#000000" points="350.1447,-175.5001 360.1447,-172 350.1446,-168.5001 350.1447,-175.5001"/>
</g>
<!-- AnalyseMixIntermaintComponent  -->
<g id="node5" class="node">
<title>AnalyseMixIntermaintComponent </title>
<polygon fill="#fb8072" stroke="#000000" points="560.3517,-266 347.6483,-266 347.6483,-230 560.3517,-230 560.3517,-266"/>
<text text-anchor="middle" x="454" y="-243.8" font-family="Times,serif" font-size="14.00" fill="#000000">AnalyseMixIntermaintComponent </text>
</g>
<!-- AnalyseMixIntermaintModule&#45;&gt;AnalyseMixIntermaintComponent  -->
<g id="edge4" class="edge">
<title>AnalyseMixIntermaintModule&#45;&gt;AnalyseMixIntermaintComponent </title>
<path fill="none" stroke="#000000" stroke-dasharray="5,2" d="M422.8219,-190.0109C422.8219,-190.0109 422.8219,-219.855 422.8219,-219.855"/>
<polygon fill="#000000" stroke="#000000" points="419.322,-219.8549 422.8219,-229.855 426.322,-219.855 419.322,-219.8549"/>
</g>
<!-- InterventionsModule -->
<g id="node15" class="node">
<title>InterventionsModule</title>
<polygon fill="#8dd3c7" stroke="#000000" points="2478.9173,-266 2475.9173,-270 2454.9173,-270 2451.9173,-266 2345.0827,-266 2345.0827,-230 2478.9173,-230 2478.9173,-266"/>
<text text-anchor="middle" x="2412" y="-243.8" font-family="Times,serif" font-size="14.00" fill="#000000">InterventionsModule</text>
</g>
<!-- AnalyseMixIntermaintModule&#45;&gt;InterventionsModule -->
<g id="edge26" class="edge">
<title>AnalyseMixIntermaintModule&#45;&gt;InterventionsModule</title>
<path fill="none" stroke="#000000" d="M485.1781,-190.1871C485.1781,-205.1824 485.1781,-224 485.1781,-224 485.1781,-224 2358.8513,-224 2358.8513,-224 2358.8513,-224 2358.8513,-224.581 2358.8513,-224.581"/>
<polygon fill="#000000" stroke="#000000" points="2355.3515,-219.8097 2358.8513,-229.8097 2362.3515,-219.8098 2355.3515,-219.8097"/>
</g>
<!-- AppComponent -->
<g id="node6" class="node">
<title>AppComponent</title>
<polygon fill="#ffffb3" stroke="#000000" points="3955.9399,-266 3850.0601,-266 3850.0601,-230 3955.9399,-230 3955.9399,-266"/>
<text text-anchor="middle" x="3903" y="-243.8" font-family="Times,serif" font-size="14.00" fill="#000000">AppComponent</text>
</g>
<!-- AppModule -->
<g id="node12" class="node">
<title>AppModule</title>
<polygon fill="#8dd3c7" stroke="#000000" points="3051.6571,-331 3048.6571,-335 3027.6571,-335 3024.6571,-331 2968.3429,-331 2968.3429,-295 3051.6571,-295 3051.6571,-331"/>
<text text-anchor="middle" x="3010" y="-308.8" font-family="Times,serif" font-size="14.00" fill="#000000">AppModule</text>
</g>
<!-- AppComponent&#45;&gt;AppModule -->
<g id="edge5" class="edge">
<title>AppComponent&#45;&gt;AppModule</title>
<path fill="none" stroke="#000000" d="M3903,-266.0908C3903,-289.1328 3903,-326 3903,-326 3903,-326 3061.8735,-326 3061.8735,-326"/>
<polygon fill="#000000" stroke="#000000" points="3061.8735,-322.5001 3051.8735,-326 3061.8735,-329.5001 3061.8735,-322.5001"/>
</g>
<!-- HistoricComponent -->
<g id="node7" class="node">
<title>HistoricComponent</title>
<polygon fill="#ffffb3" stroke="#000000" points="3832.4313,-266 3705.5687,-266 3705.5687,-230 3832.4313,-230 3832.4313,-266"/>
<text text-anchor="middle" x="3769" y="-243.8" font-family="Times,serif" font-size="14.00" fill="#000000">HistoricComponent</text>
</g>
<!-- HistoricComponent&#45;&gt;AppModule -->
<g id="edge6" class="edge">
<title>HistoricComponent&#45;&gt;AppModule</title>
<path fill="none" stroke="#000000" d="M3769,-266.0449C3769,-287.6623 3769,-321 3769,-321 3769,-321 3061.8883,-321 3061.8883,-321"/>
<polygon fill="#000000" stroke="#000000" points="3061.8883,-317.5001 3051.8883,-321 3061.8882,-324.5001 3061.8883,-317.5001"/>
</g>
<!-- LoginComponent -->
<g id="node8" class="node">
<title>LoginComponent</title>
<polygon fill="#ffffb3" stroke="#000000" points="3687.2758,-266 3572.7242,-266 3572.7242,-230 3687.2758,-230 3687.2758,-266"/>
<text text-anchor="middle" x="3630" y="-243.8" font-family="Times,serif" font-size="14.00" fill="#000000">LoginComponent</text>
</g>
<!-- LoginComponent&#45;&gt;AppModule -->
<g id="edge7" class="edge">
<title>LoginComponent&#45;&gt;AppModule</title>
<path fill="none" stroke="#000000" d="M3630,-266.2228C3630,-286.3652 3630,-316 3630,-316 3630,-316 3062.1277,-316 3062.1277,-316"/>
<polygon fill="#000000" stroke="#000000" points="3062.1277,-312.5001 3052.1277,-316 3062.1276,-319.5001 3062.1277,-312.5001"/>
</g>
<!-- NavBarComponent -->
<g id="node9" class="node">
<title>NavBarComponent</title>
<polygon fill="#ffffb3" stroke="#000000" points="3554.3655,-266 3429.6345,-266 3429.6345,-230 3554.3655,-230 3554.3655,-266"/>
<text text-anchor="middle" x="3492" y="-243.8" font-family="Times,serif" font-size="14.00" fill="#000000">NavBarComponent</text>
</g>
<!-- NavBarComponent&#45;&gt;AppModule -->
<g id="edge8" class="edge">
<title>NavBarComponent&#45;&gt;AppModule</title>
<path fill="none" stroke="#000000" d="M3492,-266.2222C3492,-284.8285 3492,-311 3492,-311 3492,-311 3061.9312,-311 3061.9312,-311"/>
<polygon fill="#000000" stroke="#000000" points="3061.9312,-307.5001 3051.9312,-311 3061.9311,-314.5001 3061.9312,-307.5001"/>
</g>
<!-- SignUpComponent -->
<g id="node10" class="node">
<title>SignUpComponent</title>
<polygon fill="#ffffb3" stroke="#000000" points="3412.1123,-266 3287.8877,-266 3287.8877,-230 3412.1123,-230 3412.1123,-266"/>
<text text-anchor="middle" x="3350" y="-243.8" font-family="Times,serif" font-size="14.00" fill="#000000">SignUpComponent</text>
</g>
<!-- SignUpComponent&#45;&gt;AppModule -->
<g id="edge9" class="edge">
<title>SignUpComponent&#45;&gt;AppModule</title>
<path fill="none" stroke="#000000" d="M3350,-266.0336C3350,-283.0597 3350,-306 3350,-306 3350,-306 3061.6907,-306 3061.6907,-306"/>
<polygon fill="#000000" stroke="#000000" points="3061.6907,-302.5001 3051.6907,-306 3061.6906,-309.5001 3061.6907,-302.5001"/>
</g>
<!-- UserComponent -->
<g id="node11" class="node">
<title>UserComponent</title>
<polygon fill="#ffffb3" stroke="#000000" points="3269.7591,-266 3162.2409,-266 3162.2409,-230 3269.7591,-230 3269.7591,-266"/>
<text text-anchor="middle" x="3216" y="-243.8" font-family="Times,serif" font-size="14.00" fill="#000000">UserComponent</text>
</g>
<!-- UserComponent&#45;&gt;AppModule -->
<g id="edge10" class="edge">
<title>UserComponent&#45;&gt;AppModule</title>
<path fill="none" stroke="#000000" d="M3216,-266.2396C3216,-281.5706 3216,-301 3216,-301 3216,-301 3061.6872,-301 3061.6872,-301"/>
<polygon fill="#000000" stroke="#000000" points="3061.6872,-297.5001 3051.6872,-301 3061.6871,-304.5001 3061.6872,-297.5001"/>
</g>
<!-- AppComponent  -->
<g id="node20" class="node">
<title>AppComponent </title>
<polygon fill="#80b1d3" stroke="#000000" points="3064.439,-396 2955.561,-396 2955.561,-360 3064.439,-360 3064.439,-396"/>
<text text-anchor="middle" x="3010" y="-373.8" font-family="Times,serif" font-size="14.00" fill="#000000">AppComponent </text>
</g>
<!-- AppModule&#45;&gt;AppComponent  -->
<g id="edge18" class="edge">
<title>AppModule&#45;&gt;AppComponent </title>
<path fill="none" stroke="#000000" stroke-dasharray="1,5" d="M3010,-331.1061C3010,-331.1061 3010,-349.991 3010,-349.991"/>
<polygon fill="#000000" stroke="#000000" points="3006.5001,-349.9909 3010,-359.991 3013.5001,-349.991 3006.5001,-349.9909"/>
</g>
<!-- AppRoutingModule -->
<g id="node13" class="node">
<title>AppRoutingModule</title>
<polygon fill="#8dd3c7" stroke="#000000" points="3138.2744,-266 3135.2744,-270 3114.2744,-270 3111.2744,-266 3009.7256,-266 3009.7256,-230 3138.2744,-230 3138.2744,-266"/>
<text text-anchor="middle" x="3074" y="-243.8" font-family="Times,serif" font-size="14.00" fill="#000000">AppRoutingModule</text>
</g>
<!-- AppRoutingModule&#45;&gt;AppModule -->
<g id="edge11" class="edge">
<title>AppRoutingModule&#45;&gt;AppModule</title>
<path fill="none" stroke="#000000" d="M3030.7206,-266.1061C3030.7206,-266.1061 3030.7206,-284.991 3030.7206,-284.991"/>
<polygon fill="#000000" stroke="#000000" points="3027.2206,-284.9909 3030.7206,-294.991 3034.2206,-284.991 3027.2206,-284.9909"/>
</g>
<!-- HistoricModule -->
<g id="node14" class="node">
<title>HistoricModule</title>
<polygon fill="#8dd3c7" stroke="#000000" points="2327.1486,-266 2324.1486,-270 2303.1486,-270 2300.1486,-266 2222.8514,-266 2222.8514,-230 2327.1486,-230 2327.1486,-266"/>
<text text-anchor="middle" x="2275" y="-243.8" font-family="Times,serif" font-size="14.00" fill="#000000">HistoricModule</text>
</g>
<!-- HistoricModule&#45;&gt;AppModule -->
<g id="edge12" class="edge">
<title>HistoricModule&#45;&gt;AppModule</title>
<path fill="none" stroke="#000000" d="M2275,-266.0449C2275,-287.6623 2275,-321 2275,-321 2275,-321 2958.1107,-321 2958.1107,-321"/>
<polygon fill="#000000" stroke="#000000" points="2958.1107,-324.5001 2968.1107,-321 2958.1106,-317.5001 2958.1107,-324.5001"/>
</g>
<!-- InterventionsModule&#45;&gt;AppModule -->
<g id="edge13" class="edge">
<title>InterventionsModule&#45;&gt;AppModule</title>
<path fill="none" stroke="#000000" d="M2412,-266.2228C2412,-286.3652 2412,-316 2412,-316 2412,-316 2957.9498,-316 2957.9498,-316"/>
<polygon fill="#000000" stroke="#000000" points="2957.9498,-319.5001 2967.9498,-316 2957.9498,-312.5001 2957.9498,-319.5001"/>
</g>
<!-- MaintenancesModule -->
<g id="node16" class="node">
<title>MaintenancesModule</title>
<polygon fill="#8dd3c7" stroke="#000000" points="2633.7935,-266 2630.7935,-270 2609.7935,-270 2606.7935,-266 2496.2065,-266 2496.2065,-230 2633.7935,-230 2633.7935,-266"/>
<text text-anchor="middle" x="2565" y="-243.8" font-family="Times,serif" font-size="14.00" fill="#000000">MaintenancesModule</text>
</g>
<!-- MaintenancesModule&#45;&gt;AppModule -->
<g id="edge14" class="edge">
<title>MaintenancesModule&#45;&gt;AppModule</title>
<path fill="none" stroke="#000000" d="M2565,-266.2222C2565,-284.8285 2565,-311 2565,-311 2565,-311 2958.1355,-311 2958.1355,-311"/>
<polygon fill="#000000" stroke="#000000" points="2958.1355,-314.5001 2968.1355,-311 2958.1354,-307.5001 2958.1355,-314.5001"/>
</g>
<!-- SettingsModule -->
<g id="node17" class="node">
<title>SettingsModule</title>
<polygon fill="#8dd3c7" stroke="#000000" points="2756.1639,-266 2753.1639,-270 2732.1639,-270 2729.1639,-266 2651.8361,-266 2651.8361,-230 2756.1639,-230 2756.1639,-266"/>
<text text-anchor="middle" x="2704" y="-243.8" font-family="Times,serif" font-size="14.00" fill="#000000">SettingsModule</text>
</g>
<!-- SettingsModule&#45;&gt;AppModule -->
<g id="edge15" class="edge">
<title>SettingsModule&#45;&gt;AppModule</title>
<path fill="none" stroke="#000000" d="M2704,-266.0336C2704,-283.0597 2704,-306 2704,-306 2704,-306 2958.0936,-306 2958.0936,-306"/>
<polygon fill="#000000" stroke="#000000" points="2958.0937,-309.5001 2968.0936,-306 2958.0936,-302.5001 2958.0937,-309.5001"/>
</g>
<!-- StoragesModule -->
<g id="node18" class="node">
<title>StoragesModule</title>
<polygon fill="#8dd3c7" stroke="#000000" points="2881.7577,-266 2878.7577,-270 2857.7577,-270 2854.7577,-266 2774.2423,-266 2774.2423,-230 2881.7577,-230 2881.7577,-266"/>
<text text-anchor="middle" x="2828" y="-243.8" font-family="Times,serif" font-size="14.00" fill="#000000">StoragesModule</text>
</g>
<!-- StoragesModule&#45;&gt;AppModule -->
<g id="edge16" class="edge">
<title>StoragesModule&#45;&gt;AppModule</title>
<path fill="none" stroke="#000000" d="M2828,-266.2396C2828,-281.5706 2828,-301 2828,-301 2828,-301 2958.2455,-301 2958.2455,-301"/>
<polygon fill="#000000" stroke="#000000" points="2958.2456,-304.5001 2968.2455,-301 2958.2455,-297.5001 2958.2456,-304.5001"/>
</g>
<!-- UsersModule -->
<g id="node19" class="node">
<title>UsersModule</title>
<polygon fill="#8dd3c7" stroke="#000000" points="2991.9218,-266 2988.9218,-270 2967.9218,-270 2964.9218,-266 2900.0782,-266 2900.0782,-230 2991.9218,-230 2991.9218,-266"/>
<text text-anchor="middle" x="2946" y="-243.8" font-family="Times,serif" font-size="14.00" fill="#000000">UsersModule</text>
</g>
<!-- UsersModule&#45;&gt;AppModule -->
<g id="edge17" class="edge">
<title>UsersModule&#45;&gt;AppModule</title>
<path fill="none" stroke="#000000" d="M2979.9411,-266.1061C2979.9411,-266.1061 2979.9411,-284.991 2979.9411,-284.991"/>
<polygon fill="#000000" stroke="#000000" points="2976.4412,-284.9909 2979.9411,-294.991 2983.4412,-284.991 2976.4412,-284.9909"/>
</g>
<!-- AuthInterceptor -->
<g id="node21" class="node">
<title>AuthInterceptor</title>
<ellipse fill="#fdb462" stroke="#000000" cx="2126" cy="-248" rx="72.9121" ry="18"/>
<text text-anchor="middle" x="2126" y="-243.8" font-family="Times,serif" font-size="14.00" fill="#000000">AuthInterceptor</text>
</g>
<!-- AuthInterceptor&#45;&gt;AppModule -->
<g id="edge19" class="edge">
<title>AuthInterceptor&#45;&gt;AppModule</title>
<path fill="none" stroke="#000000" d="M2126,-266.0908C2126,-289.1328 2126,-326 2126,-326 2126,-326 2958.2535,-326 2958.2535,-326"/>
<polygon fill="#000000" stroke="#000000" points="2958.2535,-329.5001 2968.2535,-326 2958.2535,-322.5001 2958.2535,-329.5001"/>
</g>
<!-- HistoricByassetComponent -->
<g id="node22" class="node">
<title>HistoricByassetComponent</title>
<polygon fill="#ffffb3" stroke="#000000" points="1047.9762,-190 878.0238,-190 878.0238,-154 1047.9762,-154 1047.9762,-190"/>
<text text-anchor="middle" x="963" y="-167.8" font-family="Times,serif" font-size="14.00" fill="#000000">HistoricByassetComponent</text>
</g>
<!-- HistoricByassetComponent&#45;&gt;HistoricModule -->
<g id="edge20" class="edge">
<title>HistoricByassetComponent&#45;&gt;HistoricModule</title>
<path fill="none" stroke="#000000" d="M963,-190.2819C963,-205.9478 963,-226 963,-226 963,-226 2257.607,-226 2257.607,-226 2257.607,-226 2257.607,-226.3832 2257.607,-226.3832"/>
<polygon fill="#000000" stroke="#000000" points="2254.1072,-219.832 2257.607,-229.8321 2261.1072,-219.8322 2254.1072,-219.832"/>
</g>
<!-- HistoricRoutingModule -->
<g id="node23" class="node">
<title>HistoricRoutingModule</title>
<polygon fill="#8dd3c7" stroke="#000000" points="853.766,-190 850.766,-194 829.766,-194 826.766,-190 704.234,-190 704.234,-154 853.766,-154 853.766,-190"/>
<text text-anchor="middle" x="779" y="-167.8" font-family="Times,serif" font-size="14.00" fill="#000000">HistoricRoutingModule</text>
</g>
<!-- HistoricRoutingModule&#45;&gt;HistoricModule -->
<g id="edge21" class="edge">
<title>HistoricRoutingModule&#45;&gt;HistoricModule</title>
<path fill="none" stroke="#000000" d="M779,-190.027C779,-206.3976 779,-228 779,-228 779,-228 2240.1415,-228 2240.1415,-228 2240.1415,-228 2240.1415,-228.1846 2240.1415,-228.1846"/>
<polygon fill="#000000" stroke="#000000" points="2236.6421,-219.8455 2240.1415,-229.8457 2243.6421,-219.8459 2236.6421,-219.8455"/>
</g>
<!-- FormulaireInterventionComponent -->
<g id="node24" class="node">
<title>FormulaireInterventionComponent</title>
<polygon fill="#ffffb3" stroke="#000000" points="2092.9594,-190 1881.0406,-190 1881.0406,-154 2092.9594,-154 2092.9594,-190"/>
<text text-anchor="middle" x="1987" y="-167.8" font-family="Times,serif" font-size="14.00" fill="#000000">FormulaireInterventionComponent</text>
</g>
<!-- FormulaireInterventionComponent&#45;&gt;InterventionsModule -->
<g id="edge22" class="edge">
<title>FormulaireInterventionComponent&#45;&gt;InterventionsModule</title>
<path fill="none" stroke="#000000" d="M2073.137,-190.0555C2073.137,-201.439 2073.137,-214 2073.137,-214 2073.137,-214 2426.6494,-214 2426.6494,-214 2426.6494,-214 2426.6494,-219.8056 2426.6494,-219.8056"/>
<polygon fill="#000000" stroke="#000000" points="2423.1495,-219.8055 2426.6494,-229.8056 2430.1495,-219.8056 2423.1495,-219.8055"/>
</g>
<!-- InterventionsComponent -->
<g id="node25" class="node">
<title>InterventionsComponent</title>
<polygon fill="#ffffb3" stroke="#000000" points="1862.6993,-190 1707.3007,-190 1707.3007,-154 1862.6993,-154 1862.6993,-190"/>
<text text-anchor="middle" x="1785" y="-167.8" font-family="Times,serif" font-size="14.00" fill="#000000">InterventionsComponent</text>
</g>
<!-- InterventionsComponent&#45;&gt;InterventionsModule -->
<g id="edge23" class="edge">
<title>InterventionsComponent&#45;&gt;InterventionsModule</title>
<path fill="none" stroke="#000000" d="M1785,-190.1505C1785,-202.2708 1785,-216 1785,-216 1785,-216 2413.0898,-216 2413.0898,-216 2413.0898,-216 2413.0898,-219.7566 2413.0898,-219.7566"/>
<polygon fill="#000000" stroke="#000000" points="2409.5899,-219.7566 2413.0898,-229.7566 2416.5899,-219.7566 2409.5899,-219.7566"/>
</g>
<!-- ListInterventionComponent -->
<g id="node26" class="node">
<title>ListInterventionComponent</title>
<polygon fill="#ffffb3" stroke="#000000" points="1689.5336,-190 1518.4664,-190 1518.4664,-154 1689.5336,-154 1689.5336,-190"/>
<text text-anchor="middle" x="1604" y="-167.8" font-family="Times,serif" font-size="14.00" fill="#000000">ListInterventionComponent</text>
</g>
<!-- ListInterventionComponent&#45;&gt;InterventionsModule -->
<g id="edge24" class="edge">
<title>ListInterventionComponent&#45;&gt;InterventionsModule</title>
<path fill="none" stroke="#000000" d="M1604,-190.1804C1604,-203.0382 1604,-218 1604,-218 1604,-218 2399.5302,-218 2399.5302,-218 2399.5302,-218 2399.5302,-219.8568 2399.5302,-219.8568"/>
<polygon fill="#000000" stroke="#000000" points="2396.0302,-219.8568 2399.5302,-229.8568 2403.0302,-219.8568 2396.0302,-219.8568"/>
</g>
<!-- ResolutionInterventionComponent -->
<g id="node27" class="node">
<title>ResolutionInterventionComponent</title>
<polygon fill="#ffffb3" stroke="#000000" points="1500.4226,-190 1289.5774,-190 1289.5774,-154 1500.4226,-154 1500.4226,-190"/>
<text text-anchor="middle" x="1395" y="-167.8" font-family="Times,serif" font-size="14.00" fill="#000000">ResolutionInterventionComponent</text>
</g>
<!-- ResolutionInterventionComponent&#45;&gt;InterventionsModule -->
<g id="edge25" class="edge">
<title>ResolutionInterventionComponent&#45;&gt;InterventionsModule</title>
<path fill="none" stroke="#000000" d="M1395,-190.1467C1395,-203.7395 1395,-220 1395,-220 1395,-220 2385.9705,-220 2385.9705,-220 2385.9705,-220 2385.9705,-220.9793 2385.9705,-220.9793"/>
<polygon fill="#000000" stroke="#000000" points="2382.4707,-219.793 2385.9705,-229.793 2389.4707,-219.7931 2382.4707,-219.793"/>
</g>
<!-- InterventionsRoutingModule -->
<g id="node28" class="node">
<title>InterventionsRoutingModule</title>
<polygon fill="#8dd3c7" stroke="#000000" points="1266.035,-190 1263.035,-194 1242.035,-194 1239.035,-190 1087.965,-190 1087.965,-154 1266.035,-154 1266.035,-190"/>
<text text-anchor="middle" x="1177" y="-167.8" font-family="Times,serif" font-size="14.00" fill="#000000">InterventionsRoutingModule</text>
</g>
<!-- InterventionsRoutingModule&#45;&gt;InterventionsModule -->
<g id="edge27" class="edge">
<title>InterventionsRoutingModule&#45;&gt;InterventionsModule</title>
<path fill="none" stroke="#000000" d="M1177,-190.0511C1177,-204.373 1177,-222 1177,-222 1177,-222 2372.4109,-222 2372.4109,-222 2372.4109,-222 2372.4109,-222.7942 2372.4109,-222.7942"/>
<polygon fill="#000000" stroke="#000000" points="2368.9111,-219.9421 2372.4109,-229.9421 2375.9111,-219.9422 2368.9111,-219.9421"/>
</g>
<!-- CalendrierComponent -->
<g id="node29" class="node">
<title>CalendrierComponent</title>
<polygon fill="#ffffb3" stroke="#000000" points="2612.4158,-190 2471.5842,-190 2471.5842,-154 2612.4158,-154 2612.4158,-190"/>
<text text-anchor="middle" x="2542" y="-167.8" font-family="Times,serif" font-size="14.00" fill="#000000">CalendrierComponent</text>
</g>
<!-- CalendrierComponent&#45;&gt;MaintenancesModule -->
<g id="edge28" class="edge">
<title>CalendrierComponent&#45;&gt;MaintenancesModule</title>
<path fill="none" stroke="#000000" d="M2583.2441,-190.0109C2583.2441,-190.0109 2583.2441,-219.855 2583.2441,-219.855"/>
<polygon fill="#000000" stroke="#000000" points="2579.7441,-219.8549 2583.2441,-229.855 2586.7441,-219.855 2579.7441,-219.8549"/>
</g>
<!-- FormulaireComponent -->
<g id="node30" class="node">
<title>FormulaireComponent</title>
<polygon fill="#ffffb3" stroke="#000000" points="2453.5379,-190 2310.4621,-190 2310.4621,-154 2453.5379,-154 2453.5379,-190"/>
<text text-anchor="middle" x="2382" y="-167.8" font-family="Times,serif" font-size="14.00" fill="#000000">FormulaireComponent</text>
</g>
<!-- FormulaireComponent&#45;&gt;MaintenancesModule -->
<g id="edge29" class="edge">
<title>FormulaireComponent&#45;&gt;MaintenancesModule</title>
<path fill="none" stroke="#000000" d="M2440.209,-190.1097C2440.209,-199.897 2440.209,-210 2440.209,-210 2440.209,-210 2554.2805,-210 2554.2805,-210 2554.2805,-210 2554.2805,-219.8903 2554.2805,-219.8903"/>
<polygon fill="#000000" stroke="#000000" points="2550.7806,-219.8903 2554.2805,-229.8903 2557.7806,-219.8904 2550.7806,-219.8903"/>
</g>
<!-- MaintenancesComponent -->
<g id="node31" class="node">
<title>MaintenancesComponent</title>
<polygon fill="#ffffb3" stroke="#000000" points="2292.5758,-190 2133.4242,-190 2133.4242,-154 2292.5758,-154 2292.5758,-190"/>
<text text-anchor="middle" x="2213" y="-167.8" font-family="Times,serif" font-size="14.00" fill="#000000">MaintenancesComponent</text>
</g>
<!-- MaintenancesComponent&#45;&gt;MaintenancesModule -->
<g id="edge30" class="edge">
<title>MaintenancesComponent&#45;&gt;MaintenancesModule</title>
<path fill="none" stroke="#000000" d="M2275.0724,-190.1274C2275.0724,-200.7109 2275.0724,-212 2275.0724,-212 2275.0724,-212 2525.317,-212 2525.317,-212 2525.317,-212 2525.317,-219.5782 2525.317,-219.5782"/>
<polygon fill="#000000" stroke="#000000" points="2521.817,-219.5781 2525.317,-229.5782 2528.817,-219.5782 2521.817,-219.5781"/>
</g>
<!-- MaintenancesRoutingModule -->
<g id="node32" class="node">
<title>MaintenancesRoutingModule</title>
<polygon fill="#8dd3c7" stroke="#000000" points="2818.4115,-190 2815.4115,-194 2794.4115,-194 2791.4115,-190 2635.5885,-190 2635.5885,-154 2818.4115,-154 2818.4115,-190"/>
<text text-anchor="middle" x="2727" y="-167.8" font-family="Times,serif" font-size="14.00" fill="#000000">MaintenancesRoutingModule</text>
</g>
<!-- MaintenancesRoutingModule&#45;&gt;MaintenancesModule -->
<g id="edge31" class="edge">
<title>MaintenancesRoutingModule&#45;&gt;MaintenancesModule</title>
<path fill="none" stroke="#000000" d="M2643.7314,-190.0109C2643.7314,-212.4852 2643.7314,-248 2643.7314,-248 2643.7314,-248 2642.7343,-248 2642.7343,-248"/>
<polygon fill="#000000" stroke="#000000" points="2643.7601,-244.5001 2633.76,-248 2643.76,-251.5001 2643.7601,-244.5001"/>
</g>
<!-- MaintenancesRoutingModule&#45;&gt;SettingsModule -->
<g id="edge35" class="edge">
<title>MaintenancesRoutingModule&#45;&gt;SettingsModule</title>
<path fill="none" stroke="#000000" d="M2669.1122,-190.0109C2669.1122,-190.0109 2669.1122,-219.855 2669.1122,-219.855"/>
<polygon fill="#000000" stroke="#000000" points="2665.6123,-219.8549 2669.1122,-229.855 2672.6123,-219.855 2665.6123,-219.8549"/>
</g>
<!-- AssetComponent -->
<g id="node33" class="node">
<title>AssetComponent</title>
<polygon fill="#ffffb3" stroke="#000000" points="3460.4342,-190 3347.5658,-190 3347.5658,-154 3460.4342,-154 3460.4342,-190"/>
<text text-anchor="middle" x="3404" y="-167.8" font-family="Times,serif" font-size="14.00" fill="#000000">AssetComponent</text>
</g>
<!-- AssetComponent&#45;&gt;SettingsModule -->
<g id="edge32" class="edge">
<title>AssetComponent&#45;&gt;SettingsModule</title>
<path fill="none" stroke="#000000" d="M3379.9197,-190.0579C3379.9197,-194.4945 3379.9197,-198 3379.9197,-198 3379.9197,-198 2738.8878,-198 2738.8878,-198 2738.8878,-198 2738.8878,-219.9489 2738.8878,-219.9489"/>
<polygon fill="#000000" stroke="#000000" points="2735.3879,-219.9488 2738.8878,-229.9489 2742.3879,-219.9489 2735.3879,-219.9488"/>
</g>
<!-- MaintenanceComponent -->
<g id="node34" class="node">
<title>MaintenanceComponent</title>
<polygon fill="#ffffb3" stroke="#000000" points="3329.6316,-190 3176.3684,-190 3176.3684,-154 3329.6316,-154 3329.6316,-190"/>
<text text-anchor="middle" x="3253" y="-167.8" font-family="Times,serif" font-size="14.00" fill="#000000">MaintenanceComponent</text>
</g>
<!-- MaintenanceComponent&#45;&gt;SettingsModule -->
<g id="edge33" class="edge">
<title>MaintenanceComponent&#45;&gt;SettingsModule</title>
<path fill="none" stroke="#000000" d="M3223.0319,-190.1903C3223.0319,-193.5376 3223.0319,-196 3223.0319,-196 3223.0319,-196 2721.4439,-196 2721.4439,-196 2721.4439,-196 2721.4439,-219.8129 2721.4439,-219.8129"/>
<polygon fill="#000000" stroke="#000000" points="2717.944,-219.8129 2721.4439,-229.8129 2724.944,-219.813 2717.944,-219.8129"/>
</g>
<!-- SettingsComponent -->
<g id="node35" class="node">
<title>SettingsComponent</title>
<polygon fill="#ffffb3" stroke="#000000" points="3158.4468,-190 3031.5532,-190 3031.5532,-154 3158.4468,-154 3158.4468,-190"/>
<text text-anchor="middle" x="3095" y="-167.8" font-family="Times,serif" font-size="14.00" fill="#000000">SettingsComponent</text>
</g>
<!-- SettingsComponent&#45;&gt;SettingsModule -->
<g id="edge34" class="edge">
<title>SettingsComponent&#45;&gt;SettingsModule</title>
<path fill="none" stroke="#000000" d="M3085.0821,-190.1679C3085.0821,-192.4478 3085.0821,-194 3085.0821,-194 3085.0821,-194 2704,-194 2704,-194 2704,-194 2704,-219.7181 2704,-219.7181"/>
<polygon fill="#000000" stroke="#000000" points="2700.5001,-219.718 2704,-229.7181 2707.5001,-219.7181 2700.5001,-219.718"/>
</g>
<!-- SettingsRoutingModule -->
<g id="node36" class="node">
<title>SettingsRoutingModule</title>
<polygon fill="#8dd3c7" stroke="#000000" points="3007.7814,-190 3004.7814,-194 2983.7814,-194 2980.7814,-190 2858.2186,-190 2858.2186,-154 3007.7814,-154 3007.7814,-190"/>
<text text-anchor="middle" x="2933" y="-167.8" font-family="Times,serif" font-size="14.00" fill="#000000">SettingsRoutingModule</text>
</g>
<!-- SettingsRoutingModule&#45;&gt;SettingsModule -->
<g id="edge36" class="edge">
<title>SettingsRoutingModule&#45;&gt;SettingsModule</title>
<path fill="none" stroke="#000000" d="M2864.0517,-190.1543C2864.0517,-191.2969 2864.0517,-192 2864.0517,-192 2864.0517,-192 2686.5561,-192 2686.5561,-192 2686.5561,-192 2686.5561,-219.973 2686.5561,-219.973"/>
<polygon fill="#000000" stroke="#000000" points="2683.0562,-219.973 2686.5561,-229.973 2690.0562,-219.973 2683.0562,-219.973"/>
</g>
<!-- StoragesComponent -->
<g id="node37" class="node">
<title>StoragesComponent</title>
<polygon fill="#ffffb3" stroke="#000000" points="3805.5408,-190 3676.4592,-190 3676.4592,-154 3805.5408,-154 3805.5408,-190"/>
<text text-anchor="middle" x="3741" y="-167.8" font-family="Times,serif" font-size="14.00" fill="#000000">StoragesComponent</text>
</g>
<!-- StoragesComponent&#45;&gt;StoragesModule -->
<g id="edge37" class="edge">
<title>StoragesComponent&#45;&gt;StoragesModule</title>
<path fill="none" stroke="#000000" d="M3681.8089,-190.1432C3681.8089,-196.4611 3681.8089,-202 3681.8089,-202 3681.8089,-202 2875.9364,-202 2875.9364,-202 2875.9364,-202 2875.9364,-219.8196 2875.9364,-219.8196"/>
<polygon fill="#000000" stroke="#000000" points="2872.4365,-219.8195 2875.9364,-229.8196 2879.4365,-219.8196 2872.4365,-219.8195"/>
</g>
<!-- StoragesRoutingModule -->
<g id="node38" class="node">
<title>StoragesRoutingModule</title>
<polygon fill="#8dd3c7" stroke="#000000" points="3652.3753,-190 3649.3753,-194 3628.3753,-194 3625.3753,-190 3499.6247,-190 3499.6247,-154 3652.3753,-154 3652.3753,-190"/>
<text text-anchor="middle" x="3576" y="-167.8" font-family="Times,serif" font-size="14.00" fill="#000000">StoragesRoutingModule</text>
</g>
<!-- StoragesRoutingModule&#45;&gt;StoragesModule -->
<g id="edge38" class="edge">
<title>StoragesRoutingModule&#45;&gt;StoragesModule</title>
<path fill="none" stroke="#000000" d="M3526.9976,-190.207C3526.9976,-195.5549 3526.9976,-200 3526.9976,-200 3526.9976,-200 2869.9941,-200 2869.9941,-200 2869.9941,-200 2869.9941,-219.8533 2869.9941,-219.8533"/>
<polygon fill="#000000" stroke="#000000" points="2866.4941,-219.8532 2869.9941,-229.8533 2873.4941,-219.8533 2866.4941,-219.8532"/>
</g>
<!-- ProfilComponent -->
<g id="node39" class="node">
<title>ProfilComponent</title>
<polygon fill="#ffffb3" stroke="#000000" points="4250.7176,-190 4137.2824,-190 4137.2824,-154 4250.7176,-154 4250.7176,-190"/>
<text text-anchor="middle" x="4194" y="-167.8" font-family="Times,serif" font-size="14.00" fill="#000000">ProfilComponent</text>
</g>
<!-- ProfilComponent&#45;&gt;UsersModule -->
<g id="edge39" class="edge">
<title>ProfilComponent&#45;&gt;UsersModule</title>
<path fill="none" stroke="#000000" d="M4194,-190.4218C4194,-199.2791 4194,-208 4194,-208 4194,-208 2968.8552,-208 2968.8552,-208 2968.8552,-208 2968.8552,-219.8726 2968.8552,-219.8726"/>
<polygon fill="#000000" stroke="#000000" points="2965.3553,-219.8725 2968.8552,-229.8726 2972.3553,-219.8726 2965.3553,-219.8725"/>
</g>
<!-- UsersComponent -->
<g id="node40" class="node">
<title>UsersComponent</title>
<polygon fill="#ffffb3" stroke="#000000" points="4119.7036,-190 4006.2964,-190 4006.2964,-154 4119.7036,-154 4119.7036,-190"/>
<text text-anchor="middle" x="4063" y="-167.8" font-family="Times,serif" font-size="14.00" fill="#000000">UsersComponent</text>
</g>
<!-- UsersComponent&#45;&gt;UsersModule -->
<g id="edge40" class="edge">
<title>UsersComponent&#45;&gt;UsersModule</title>
<path fill="none" stroke="#000000" d="M4063,-190.1944C4063,-198.2782 4063,-206 4063,-206 4063,-206 2946,-206 2946,-206 2946,-206 2946,-219.9445 2946,-219.9445"/>
<polygon fill="#000000" stroke="#000000" points="2942.5001,-219.9444 2946,-229.9445 2949.5001,-219.9445 2942.5001,-219.9444"/>
</g>
<!-- UsersRoutingModule -->
<g id="node41" class="node">
<title>UsersRoutingModule</title>
<polygon fill="#8dd3c7" stroke="#000000" points="3982.0394,-190 3979.0394,-194 3958.0394,-194 3955.0394,-190 3845.9606,-190 3845.9606,-154 3982.0394,-154 3982.0394,-190"/>
<text text-anchor="middle" x="3914" y="-167.8" font-family="Times,serif" font-size="14.00" fill="#000000">UsersRoutingModule</text>
</g>
<!-- UsersRoutingModule&#45;&gt;UsersModule -->
<g id="edge41" class="edge">
<title>UsersRoutingModule&#45;&gt;UsersModule</title>
<path fill="none" stroke="#000000" d="M3903,-190.2434C3903,-197.4297 3903,-204 3903,-204 3903,-204 2923.1448,-204 2923.1448,-204 2923.1448,-204 2923.1448,-219.8495 2923.1448,-219.8495"/>
<polygon fill="#000000" stroke="#000000" points="2919.6449,-219.8494 2923.1448,-229.8495 2926.6449,-219.8495 2919.6449,-219.8494"/>
</g>
</g>
</svg>
