<?xml version="1.0" encoding="UTF-8" standalone="no"?>
<!DOCTYPE svg PUBLIC "-//W3C//DTD SVG 1.1//EN"
 "http://www.w3.org/Graphics/SVG/1.1/DTD/svg11.dtd">
<!-- Generated by graphviz version 2.40.1 (20161225.0304)
 -->
<!-- Title: dependencies Pages: 1 -->
<svg width="504pt" height="211pt"
 viewBox="0.00 0.00 504.00 211.00" xmlns="http://www.w3.org/2000/svg" xmlns:xlink="http://www.w3.org/1999/xlink">
<g id="graph0" class="graph" transform="scale(1 1) rotate(0) translate(4 207)">
<title>dependencies</title>
<polygon fill="#ffffff" stroke="transparent" points="-4,4 -4,-207 500,-207 500,4 -4,4"/>
<text text-anchor="start" x="227.0091" y="-42.4" font-family="sans-serif" font-weight="bold" font-size="14.00" fill="#000000">Legend</text>
<polygon fill="#ffffb3" stroke="transparent" points="14,-10 14,-30 34,-30 34,-10 14,-10"/>
<text text-anchor="start" x="37.629" y="-15.4" font-family="sans-serif" font-size="14.00" fill="#000000"> &#160;Declarations</text>
<polygon fill="#8dd3c7" stroke="transparent" points="127,-10 127,-30 147,-30 147,-10 127,-10"/>
<text text-anchor="start" x="150.7251" y="-15.4" font-family="sans-serif" font-size="14.00" fill="#000000"> &#160;Module</text>
<polygon fill="#80b1d3" stroke="transparent" points="213,-10 213,-30 233,-30 233,-10 213,-10"/>
<text text-anchor="start" x="236.7812" y="-15.4" font-family="sans-serif" font-size="14.00" fill="#000000"> &#160;Bootstrap</text>
<polygon fill="#fdb462" stroke="transparent" points="310,-10 310,-30 330,-30 330,-10 310,-10"/>
<text text-anchor="start" x="333.6732" y="-15.4" font-family="sans-serif" font-size="14.00" fill="#000000"> &#160;Providers</text>
<polygon fill="#fb8072" stroke="transparent" points="406,-10 406,-30 426,-30 426,-10 406,-10"/>
<text text-anchor="start" x="429.7258" y="-15.4" font-family="sans-serif" font-size="14.00" fill="#000000"> &#160;Exports</text>
<g id="clust1" class="cluster">
<title>cluster_HistoricModule</title>
<polygon fill="none" stroke="#000000" stroke-dasharray="1,5" points="60,-70 60,-195 436,-195 436,-70 60,-70"/>
</g>
<g id="clust2" class="cluster">
<title>cluster_HistoricModule_declarations</title>
<polygon fill="none" stroke="#000000" points="242,-78 242,-130 428,-130 428,-78 242,-78"/>
</g>
<g id="clust4" class="cluster">
<title>cluster_HistoricModule_imports</title>
<polygon fill="none" stroke="#000000" points="68,-78 68,-130 234,-130 234,-78 68,-78"/>
</g>
<!-- HistoricByassetComponent -->
<g id="node1" class="node">
<title>HistoricByassetComponent</title>
<polygon fill="#ffffb3" stroke="#000000" points="419.9762,-122 250.0238,-122 250.0238,-86 419.9762,-86 419.9762,-122"/>
<text text-anchor="middle" x="335" y="-99.8" font-family="Times,serif" font-size="14.00" fill="#000000">HistoricByassetComponent</text>
</g>
<!-- HistoricModule -->
<g id="node2" class="node">
<title>HistoricModule</title>
<polygon fill="#8dd3c7" stroke="#000000" points="295.1486,-187 292.1486,-191 271.1486,-191 268.1486,-187 190.8514,-187 190.8514,-151 295.1486,-151 295.1486,-187"/>
<text text-anchor="middle" x="243" y="-164.8" font-family="Times,serif" font-size="14.00" fill="#000000">HistoricModule</text>
</g>
<!-- HistoricByassetComponent&#45;&gt;HistoricModule -->
<g id="edge1" class="edge">
<title>HistoricByassetComponent&#45;&gt;HistoricModule</title>
<path fill="none" stroke="#000000" d="M272.668,-122.1061C272.668,-122.1061 272.668,-140.991 272.668,-140.991"/>
<polygon fill="#000000" stroke="#000000" points="269.168,-140.9909 272.668,-150.991 276.168,-140.991 269.168,-140.9909"/>
</g>
<!-- HistoricRoutingModule -->
<g id="node3" class="node">
<title>HistoricRoutingModule</title>
<polygon fill="#8dd3c7" stroke="#000000" points="225.766,-122 222.766,-126 201.766,-126 198.766,-122 76.234,-122 76.234,-86 225.766,-86 225.766,-122"/>
<text text-anchor="middle" x="151" y="-99.8" font-family="Times,serif" font-size="14.00" fill="#000000">HistoricRoutingModule</text>
</g>
<!-- HistoricRoutingModule&#45;&gt;HistoricModule -->
<g id="edge2" class="edge">
<title>HistoricRoutingModule&#45;&gt;HistoricModule</title>
<path fill="none" stroke="#000000" d="M208.2795,-122.1061C208.2795,-122.1061 208.2795,-140.991 208.2795,-140.991"/>
<polygon fill="#000000" stroke="#000000" points="204.7795,-140.9909 208.2795,-150.991 211.7795,-140.991 204.7795,-140.9909"/>
</g>
</g>
</svg>
