<?xml version="1.0" encoding="UTF-8" standalone="no"?>
<!DOCTYPE svg PUBLIC "-//W3C//DTD SVG 1.1//EN"
 "http://www.w3.org/Graphics/SVG/1.1/DTD/svg11.dtd">
<!-- Generated by graphviz version 2.40.1 (20161225.0304)
 -->
<!-- Title: dependencies Pages: 1 -->
<svg width="1960pt" height="284pt"
 viewBox="0.00 0.00 1960.00 284.00" xmlns="http://www.w3.org/2000/svg" xmlns:xlink="http://www.w3.org/1999/xlink">
<g id="graph0" class="graph" transform="scale(1 1) rotate(0) translate(4 280)">
<title>dependencies</title>
<polygon fill="#ffffff" stroke="transparent" points="-4,4 -4,-280 1956,-280 1956,4 -4,4"/>
<text text-anchor="start" x="955.0091" y="-42.4" font-family="sans-serif" font-weight="bold" font-size="14.00" fill="#000000">Legend</text>
<polygon fill="#ffffb3" stroke="transparent" points="742,-10 742,-30 762,-30 762,-10 742,-10"/>
<text text-anchor="start" x="765.629" y="-15.4" font-family="sans-serif" font-size="14.00" fill="#000000"> &#160;Declarations</text>
<polygon fill="#8dd3c7" stroke="transparent" points="855,-10 855,-30 875,-30 875,-10 855,-10"/>
<text text-anchor="start" x="878.7251" y="-15.4" font-family="sans-serif" font-size="14.00" fill="#000000"> &#160;Module</text>
<polygon fill="#80b1d3" stroke="transparent" points="941,-10 941,-30 961,-30 961,-10 941,-10"/>
<text text-anchor="start" x="964.7812" y="-15.4" font-family="sans-serif" font-size="14.00" fill="#000000"> &#160;Bootstrap</text>
<polygon fill="#fdb462" stroke="transparent" points="1038,-10 1038,-30 1058,-30 1058,-10 1038,-10"/>
<text text-anchor="start" x="1061.6732" y="-15.4" font-family="sans-serif" font-size="14.00" fill="#000000"> &#160;Providers</text>
<polygon fill="#fb8072" stroke="transparent" points="1134,-10 1134,-30 1154,-30 1154,-10 1134,-10"/>
<text text-anchor="start" x="1157.7258" y="-15.4" font-family="sans-serif" font-size="14.00" fill="#000000"> &#160;Exports</text>
<g id="clust1" class="cluster">
<title>cluster_AppModule</title>
<polygon fill="none" stroke="#000000" stroke-dasharray="1,5" points="8,-70 8,-268 1944,-268 1944,-70 8,-70"/>
</g>
<g id="clust2" class="cluster">
<title>cluster_AppModule_declarations</title>
<polygon fill="none" stroke="#000000" points="1126,-78 1126,-130 1936,-130 1936,-78 1126,-78"/>
</g>
<g id="clust9" class="cluster">
<title>cluster_AppModule_imports</title>
<polygon fill="none" stroke="#000000" points="186,-78 186,-130 1118,-130 1118,-78 186,-78"/>
</g>
<g id="clust11" class="cluster">
<title>cluster_AppModule_bootstrap</title>
<polygon fill="none" stroke="#000000" points="916,-208 916,-260 1040,-260 1040,-208 916,-208"/>
</g>
<g id="clust12" class="cluster">
<title>cluster_AppModule_providers</title>
<polygon fill="none" stroke="#000000" points="16,-78 16,-130 178,-130 178,-78 16,-78"/>
</g>
<!-- AppComponent -->
<g id="node1" class="node">
<title>AppComponent</title>
<polygon fill="#ffffb3" stroke="#000000" points="1927.9399,-122 1822.0601,-122 1822.0601,-86 1927.9399,-86 1927.9399,-122"/>
<text text-anchor="middle" x="1875" y="-99.8" font-family="Times,serif" font-size="14.00" fill="#000000">AppComponent</text>
</g>
<!-- AppModule -->
<g id="node7" class="node">
<title>AppModule</title>
<polygon fill="#8dd3c7" stroke="#000000" points="1019.6571,-187 1016.6571,-191 995.6571,-191 992.6571,-187 936.3429,-187 936.3429,-151 1019.6571,-151 1019.6571,-187"/>
<text text-anchor="middle" x="978" y="-164.8" font-family="Times,serif" font-size="14.00" fill="#000000">AppModule</text>
</g>
<!-- AppComponent&#45;&gt;AppModule -->
<g id="edge1" class="edge">
<title>AppComponent&#45;&gt;AppModule</title>
<path fill="none" stroke="#000000" d="M1875,-122.0908C1875,-145.1328 1875,-182 1875,-182 1875,-182 1029.7626,-182 1029.7626,-182"/>
<polygon fill="#000000" stroke="#000000" points="1029.7627,-178.5001 1019.7626,-182 1029.7626,-185.5001 1029.7627,-178.5001"/>
</g>
<!-- HistoricComponent -->
<g id="node2" class="node">
<title>HistoricComponent</title>
<polygon fill="#ffffb3" stroke="#000000" points="1804.4313,-122 1677.5687,-122 1677.5687,-86 1804.4313,-86 1804.4313,-122"/>
<text text-anchor="middle" x="1741" y="-99.8" font-family="Times,serif" font-size="14.00" fill="#000000">HistoricComponent</text>
</g>
<!-- HistoricComponent&#45;&gt;AppModule -->
<g id="edge2" class="edge">
<title>HistoricComponent&#45;&gt;AppModule</title>
<path fill="none" stroke="#000000" d="M1741,-122.0449C1741,-143.6623 1741,-177 1741,-177 1741,-177 1029.8361,-177 1029.8361,-177"/>
<polygon fill="#000000" stroke="#000000" points="1029.8362,-173.5001 1019.8361,-177 1029.8361,-180.5001 1029.8362,-173.5001"/>
</g>
<!-- LoginComponent -->
<g id="node3" class="node">
<title>LoginComponent</title>
<polygon fill="#ffffb3" stroke="#000000" points="1659.2758,-122 1544.7242,-122 1544.7242,-86 1659.2758,-86 1659.2758,-122"/>
<text text-anchor="middle" x="1602" y="-99.8" font-family="Times,serif" font-size="14.00" fill="#000000">LoginComponent</text>
</g>
<!-- LoginComponent&#45;&gt;AppModule -->
<g id="edge3" class="edge">
<title>LoginComponent&#45;&gt;AppModule</title>
<path fill="none" stroke="#000000" d="M1602,-122.2228C1602,-142.3652 1602,-172 1602,-172 1602,-172 1029.9113,-172 1029.9113,-172"/>
<polygon fill="#000000" stroke="#000000" points="1029.9114,-168.5001 1019.9113,-172 1029.9113,-175.5001 1029.9114,-168.5001"/>
</g>
<!-- NavBarComponent -->
<g id="node4" class="node">
<title>NavBarComponent</title>
<polygon fill="#ffffb3" stroke="#000000" points="1526.3655,-122 1401.6345,-122 1401.6345,-86 1526.3655,-86 1526.3655,-122"/>
<text text-anchor="middle" x="1464" y="-99.8" font-family="Times,serif" font-size="14.00" fill="#000000">NavBarComponent</text>
</g>
<!-- NavBarComponent&#45;&gt;AppModule -->
<g id="edge4" class="edge">
<title>NavBarComponent&#45;&gt;AppModule</title>
<path fill="none" stroke="#000000" d="M1464,-122.2222C1464,-140.8285 1464,-167 1464,-167 1464,-167 1029.8567,-167 1029.8567,-167"/>
<polygon fill="#000000" stroke="#000000" points="1029.8568,-163.5001 1019.8567,-167 1029.8567,-170.5001 1029.8568,-163.5001"/>
</g>
<!-- SignUpComponent -->
<g id="node5" class="node">
<title>SignUpComponent</title>
<polygon fill="#ffffb3" stroke="#000000" points="1384.1123,-122 1259.8877,-122 1259.8877,-86 1384.1123,-86 1384.1123,-122"/>
<text text-anchor="middle" x="1322" y="-99.8" font-family="Times,serif" font-size="14.00" fill="#000000">SignUpComponent</text>
</g>
<!-- SignUpComponent&#45;&gt;AppModule -->
<g id="edge5" class="edge">
<title>SignUpComponent&#45;&gt;AppModule</title>
<path fill="none" stroke="#000000" d="M1322,-122.0336C1322,-139.0597 1322,-162 1322,-162 1322,-162 1029.8372,-162 1029.8372,-162"/>
<polygon fill="#000000" stroke="#000000" points="1029.8373,-158.5001 1019.8372,-162 1029.8372,-165.5001 1029.8373,-158.5001"/>
</g>
<!-- UserComponent -->
<g id="node6" class="node">
<title>UserComponent</title>
<polygon fill="#ffffb3" stroke="#000000" points="1241.7591,-122 1134.2409,-122 1134.2409,-86 1241.7591,-86 1241.7591,-122"/>
<text text-anchor="middle" x="1188" y="-99.8" font-family="Times,serif" font-size="14.00" fill="#000000">UserComponent</text>
</g>
<!-- UserComponent&#45;&gt;AppModule -->
<g id="edge6" class="edge">
<title>UserComponent&#45;&gt;AppModule</title>
<path fill="none" stroke="#000000" d="M1188,-122.2396C1188,-137.5706 1188,-157 1188,-157 1188,-157 1029.7403,-157 1029.7403,-157"/>
<polygon fill="#000000" stroke="#000000" points="1029.7404,-153.5001 1019.7403,-157 1029.7403,-160.5001 1029.7404,-153.5001"/>
</g>
<!-- AppComponent  -->
<g id="node15" class="node">
<title>AppComponent </title>
<polygon fill="#80b1d3" stroke="#000000" points="1032.439,-252 923.561,-252 923.561,-216 1032.439,-216 1032.439,-252"/>
<text text-anchor="middle" x="978" y="-229.8" font-family="Times,serif" font-size="14.00" fill="#000000">AppComponent </text>
</g>
<!-- AppModule&#45;&gt;AppComponent  -->
<g id="edge14" class="edge">
<title>AppModule&#45;&gt;AppComponent </title>
<path fill="none" stroke="#000000" stroke-dasharray="1,5" d="M978,-187.1061C978,-187.1061 978,-205.991 978,-205.991"/>
<polygon fill="#000000" stroke="#000000" points="974.5001,-205.9909 978,-215.991 981.5001,-205.991 974.5001,-205.9909"/>
</g>
<!-- AppRoutingModule -->
<g id="node8" class="node">
<title>AppRoutingModule</title>
<polygon fill="#8dd3c7" stroke="#000000" points="1110.2744,-122 1107.2744,-126 1086.2744,-126 1083.2744,-122 981.7256,-122 981.7256,-86 1110.2744,-86 1110.2744,-122"/>
<text text-anchor="middle" x="1046" y="-99.8" font-family="Times,serif" font-size="14.00" fill="#000000">AppRoutingModule</text>
</g>
<!-- AppRoutingModule&#45;&gt;AppModule -->
<g id="edge7" class="edge">
<title>AppRoutingModule&#45;&gt;AppModule</title>
<path fill="none" stroke="#000000" d="M1000.7206,-122.1061C1000.7206,-122.1061 1000.7206,-140.991 1000.7206,-140.991"/>
<polygon fill="#000000" stroke="#000000" points="997.2206,-140.9909 1000.7206,-150.991 1004.2206,-140.991 997.2206,-140.9909"/>
</g>
<!-- HistoricModule -->
<g id="node9" class="node">
<title>HistoricModule</title>
<polygon fill="#8dd3c7" stroke="#000000" points="963.1486,-122 960.1486,-126 939.1486,-126 936.1486,-122 858.8514,-122 858.8514,-86 963.1486,-86 963.1486,-122"/>
<text text-anchor="middle" x="911" y="-99.8" font-family="Times,serif" font-size="14.00" fill="#000000">HistoricModule</text>
</g>
<!-- HistoricModule&#45;&gt;AppModule -->
<g id="edge8" class="edge">
<title>HistoricModule&#45;&gt;AppModule</title>
<path fill="none" stroke="#000000" d="M949.7479,-122.1061C949.7479,-122.1061 949.7479,-140.991 949.7479,-140.991"/>
<polygon fill="#000000" stroke="#000000" points="946.248,-140.9909 949.7479,-150.991 953.248,-140.991 946.248,-140.9909"/>
</g>
<!-- InterventionsModule -->
<g id="node10" class="node">
<title>InterventionsModule</title>
<polygon fill="#8dd3c7" stroke="#000000" points="840.9173,-122 837.9173,-126 816.9173,-126 813.9173,-122 707.0827,-122 707.0827,-86 840.9173,-86 840.9173,-122"/>
<text text-anchor="middle" x="774" y="-99.8" font-family="Times,serif" font-size="14.00" fill="#000000">InterventionsModule</text>
</g>
<!-- InterventionsModule&#45;&gt;AppModule -->
<g id="edge9" class="edge">
<title>InterventionsModule&#45;&gt;AppModule</title>
<path fill="none" stroke="#000000" d="M774,-122.2396C774,-137.5706 774,-157 774,-157 774,-157 926.2253,-157 926.2253,-157"/>
<polygon fill="#000000" stroke="#000000" points="926.2253,-160.5001 936.2253,-157 926.2253,-153.5001 926.2253,-160.5001"/>
</g>
<!-- MaintenancesModule -->
<g id="node11" class="node">
<title>MaintenancesModule</title>
<polygon fill="#8dd3c7" stroke="#000000" points="689.7935,-122 686.7935,-126 665.7935,-126 662.7935,-122 552.2065,-122 552.2065,-86 689.7935,-86 689.7935,-122"/>
<text text-anchor="middle" x="621" y="-99.8" font-family="Times,serif" font-size="14.00" fill="#000000">MaintenancesModule</text>
</g>
<!-- MaintenancesModule&#45;&gt;AppModule -->
<g id="edge10" class="edge">
<title>MaintenancesModule&#45;&gt;AppModule</title>
<path fill="none" stroke="#000000" d="M621,-122.0336C621,-139.0597 621,-162 621,-162 621,-162 925.9978,-162 925.9978,-162"/>
<polygon fill="#000000" stroke="#000000" points="925.9978,-165.5001 935.9978,-162 925.9977,-158.5001 925.9978,-165.5001"/>
</g>
<!-- SettingsModule -->
<g id="node12" class="node">
<title>SettingsModule</title>
<polygon fill="#8dd3c7" stroke="#000000" points="534.1639,-122 531.1639,-126 510.1639,-126 507.1639,-122 429.8361,-122 429.8361,-86 534.1639,-86 534.1639,-122"/>
<text text-anchor="middle" x="482" y="-99.8" font-family="Times,serif" font-size="14.00" fill="#000000">SettingsModule</text>
</g>
<!-- SettingsModule&#45;&gt;AppModule -->
<g id="edge11" class="edge">
<title>SettingsModule&#45;&gt;AppModule</title>
<path fill="none" stroke="#000000" d="M482,-122.2222C482,-140.8285 482,-167 482,-167 482,-167 926.1388,-167 926.1388,-167"/>
<polygon fill="#000000" stroke="#000000" points="926.1388,-170.5001 936.1388,-167 926.1388,-163.5001 926.1388,-170.5001"/>
</g>
<!-- StoragesModule -->
<g id="node13" class="node">
<title>StoragesModule</title>
<polygon fill="#8dd3c7" stroke="#000000" points="411.7577,-122 408.7577,-126 387.7577,-126 384.7577,-122 304.2423,-122 304.2423,-86 411.7577,-86 411.7577,-122"/>
<text text-anchor="middle" x="358" y="-99.8" font-family="Times,serif" font-size="14.00" fill="#000000">StoragesModule</text>
</g>
<!-- StoragesModule&#45;&gt;AppModule -->
<g id="edge12" class="edge">
<title>StoragesModule&#45;&gt;AppModule</title>
<path fill="none" stroke="#000000" d="M358,-122.2228C358,-142.3652 358,-172 358,-172 358,-172 925.8723,-172 925.8723,-172"/>
<polygon fill="#000000" stroke="#000000" points="925.8724,-175.5001 935.8723,-172 925.8723,-168.5001 925.8724,-175.5001"/>
</g>
<!-- UsersModule -->
<g id="node14" class="node">
<title>UsersModule</title>
<polygon fill="#8dd3c7" stroke="#000000" points="285.9218,-122 282.9218,-126 261.9218,-126 258.9218,-122 194.0782,-122 194.0782,-86 285.9218,-86 285.9218,-122"/>
<text text-anchor="middle" x="240" y="-99.8" font-family="Times,serif" font-size="14.00" fill="#000000">UsersModule</text>
</g>
<!-- UsersModule&#45;&gt;AppModule -->
<g id="edge13" class="edge">
<title>UsersModule&#45;&gt;AppModule</title>
<path fill="none" stroke="#000000" d="M240,-122.0449C240,-143.6623 240,-177 240,-177 240,-177 926.2074,-177 926.2074,-177"/>
<polygon fill="#000000" stroke="#000000" points="926.2074,-180.5001 936.2074,-177 926.2074,-173.5001 926.2074,-180.5001"/>
</g>
<!-- AuthInterceptor -->
<g id="node16" class="node">
<title>AuthInterceptor</title>
<ellipse fill="#fdb462" stroke="#000000" cx="97" cy="-104" rx="72.9121" ry="18"/>
<text text-anchor="middle" x="97" y="-99.8" font-family="Times,serif" font-size="14.00" fill="#000000">AuthInterceptor</text>
</g>
<!-- AuthInterceptor&#45;&gt;AppModule -->
<g id="edge15" class="edge">
<title>AuthInterceptor&#45;&gt;AppModule</title>
<path fill="none" stroke="#000000" d="M97,-122.0908C97,-145.1328 97,-182 97,-182 97,-182 926.1002,-182 926.1002,-182"/>
<polygon fill="#000000" stroke="#000000" points="926.1003,-185.5001 936.1002,-182 926.1002,-178.5001 926.1003,-185.5001"/>
</g>
</g>
</svg>
