<?xml version="1.0" encoding="UTF-8" standalone="no"?>
<!DOCTYPE svg PUBLIC "-//W3C//DTD SVG 1.1//EN"
 "http://www.w3.org/Graphics/SVG/1.1/DTD/svg11.dtd">
<!-- Generated by graphviz version 2.40.1 (20161225.0304)
 -->
<!-- Title: dependencies Pages: 1 -->
<svg width="2535pt" height="284pt"
 viewBox="0.00 0.00 2535.00 284.00" xmlns="http://www.w3.org/2000/svg" xmlns:xlink="http://www.w3.org/1999/xlink">
<g id="graph0" class="graph" transform="scale(1 1) rotate(0) translate(4 280)">
<title>dependencies</title>
<polygon fill="#ffffff" stroke="transparent" points="-4,4 -4,-280 2531,-280 2531,4 -4,4"/>
<text text-anchor="start" x="1242.5091" y="-42.4" font-family="sans-serif" font-weight="bold" font-size="14.00" fill="#000000">Legend</text>
<polygon fill="#ffffb3" stroke="transparent" points="1029.5,-10 1029.5,-30 1049.5,-30 1049.5,-10 1029.5,-10"/>
<text text-anchor="start" x="1053.129" y="-15.4" font-family="sans-serif" font-size="14.00" fill="#000000"> &#160;Declarations</text>
<polygon fill="#8dd3c7" stroke="transparent" points="1142.5,-10 1142.5,-30 1162.5,-30 1162.5,-10 1142.5,-10"/>
<text text-anchor="start" x="1166.2251" y="-15.4" font-family="sans-serif" font-size="14.00" fill="#000000"> &#160;Module</text>
<polygon fill="#80b1d3" stroke="transparent" points="1228.5,-10 1228.5,-30 1248.5,-30 1248.5,-10 1228.5,-10"/>
<text text-anchor="start" x="1252.2812" y="-15.4" font-family="sans-serif" font-size="14.00" fill="#000000"> &#160;Bootstrap</text>
<polygon fill="#fdb462" stroke="transparent" points="1325.5,-10 1325.5,-30 1345.5,-30 1345.5,-10 1325.5,-10"/>
<text text-anchor="start" x="1349.1732" y="-15.4" font-family="sans-serif" font-size="14.00" fill="#000000"> &#160;Providers</text>
<polygon fill="#fb8072" stroke="transparent" points="1421.5,-10 1421.5,-30 1441.5,-30 1441.5,-10 1421.5,-10"/>
<text text-anchor="start" x="1445.2258" y="-15.4" font-family="sans-serif" font-size="14.00" fill="#000000"> &#160;Exports</text>
<g id="clust1" class="cluster">
<title>cluster_AppModule</title>
<polygon fill="none" stroke="#000000" stroke-dasharray="1,5" points="8,-70 8,-268 2519,-268 2519,-70 8,-70"/>
</g>
<g id="clust2" class="cluster">
<title>cluster_AppModule_declarations</title>
<polygon fill="none" stroke="#000000" points="320,-78 320,-130 2511,-130 2511,-78 320,-78"/>
</g>
<g id="clust15" class="cluster">
<title>cluster_AppModule_imports</title>
<polygon fill="none" stroke="#000000" points="16,-78 16,-130 312,-130 312,-78 16,-78"/>
</g>
<g id="clust17" class="cluster">
<title>cluster_AppModule_bootstrap</title>
<polygon fill="none" stroke="#000000" points="1163,-208 1163,-260 1287,-260 1287,-208 1163,-208"/>
</g>
<!-- AppComponent -->
<g id="node1" class="node">
<title>AppComponent</title>
<polygon fill="#ffffb3" stroke="#000000" points="2502.9399,-122 2397.0601,-122 2397.0601,-86 2502.9399,-86 2502.9399,-122"/>
<text text-anchor="middle" x="2450" y="-99.8" font-family="Times,serif" font-size="14.00" fill="#000000">AppComponent</text>
</g>
<!-- AppModule -->
<g id="node13" class="node">
<title>AppModule</title>
<polygon fill="#8dd3c7" stroke="#000000" points="1266.6571,-187 1263.6571,-191 1242.6571,-191 1239.6571,-187 1183.3429,-187 1183.3429,-151 1266.6571,-151 1266.6571,-187"/>
<text text-anchor="middle" x="1225" y="-164.8" font-family="Times,serif" font-size="14.00" fill="#000000">AppModule</text>
</g>
<!-- AppComponent&#45;&gt;AppModule -->
<g id="edge1" class="edge">
<title>AppComponent&#45;&gt;AppModule</title>
<path fill="none" stroke="#000000" d="M2450,-122.0908C2450,-145.1328 2450,-182 2450,-182 2450,-182 1276.8129,-182 1276.8129,-182"/>
<polygon fill="#000000" stroke="#000000" points="1276.8129,-178.5001 1266.8129,-182 1276.8129,-185.5001 1276.8129,-178.5001"/>
</g>
<!-- CorpsDeMetierComponent -->
<g id="node2" class="node">
<title>CorpsDeMetierComponent</title>
<polygon fill="#ffffb3" stroke="#000000" points="2379.4115,-122 2210.5885,-122 2210.5885,-86 2379.4115,-86 2379.4115,-122"/>
<text text-anchor="middle" x="2295" y="-99.8" font-family="Times,serif" font-size="14.00" fill="#000000">CorpsDeMetierComponent</text>
</g>
<!-- CorpsDeMetierComponent&#45;&gt;AppModule -->
<g id="edge2" class="edge">
<title>CorpsDeMetierComponent&#45;&gt;AppModule</title>
<path fill="none" stroke="#000000" d="M2295,-122.0449C2295,-143.6623 2295,-177 2295,-177 2295,-177 1276.9453,-177 1276.9453,-177"/>
<polygon fill="#000000" stroke="#000000" points="1276.9453,-173.5001 1266.9453,-177 1276.9452,-180.5001 1276.9453,-173.5001"/>
</g>
<!-- DepartementComponent -->
<g id="node3" class="node">
<title>DepartementComponent</title>
<polygon fill="#ffffb3" stroke="#000000" points="2192.6302,-122 2039.3698,-122 2039.3698,-86 2192.6302,-86 2192.6302,-122"/>
<text text-anchor="middle" x="2116" y="-99.8" font-family="Times,serif" font-size="14.00" fill="#000000">DepartementComponent</text>
</g>
<!-- DepartementComponent&#45;&gt;AppModule -->
<g id="edge3" class="edge">
<title>DepartementComponent&#45;&gt;AppModule</title>
<path fill="none" stroke="#000000" d="M2116,-122.2228C2116,-142.3652 2116,-172 2116,-172 2116,-172 1276.7797,-172 1276.7797,-172"/>
<polygon fill="#000000" stroke="#000000" points="1276.7797,-168.5001 1266.7797,-172 1276.7797,-175.5001 1276.7797,-168.5001"/>
</g>
<!-- FormulaireInterventionComponent -->
<g id="node4" class="node">
<title>FormulaireInterventionComponent</title>
<polygon fill="#ffffb3" stroke="#000000" points="2020.9594,-122 1809.0406,-122 1809.0406,-86 2020.9594,-86 2020.9594,-122"/>
<text text-anchor="middle" x="1915" y="-99.8" font-family="Times,serif" font-size="14.00" fill="#000000">FormulaireInterventionComponent</text>
</g>
<!-- FormulaireInterventionComponent&#45;&gt;AppModule -->
<g id="edge4" class="edge">
<title>FormulaireInterventionComponent&#45;&gt;AppModule</title>
<path fill="none" stroke="#000000" d="M1915,-122.2222C1915,-140.8285 1915,-167 1915,-167 1915,-167 1276.866,-167 1276.866,-167"/>
<polygon fill="#000000" stroke="#000000" points="1276.866,-163.5001 1266.866,-167 1276.8659,-170.5001 1276.866,-163.5001"/>
</g>
<!-- ListeCorpMetierComponent -->
<g id="node5" class="node">
<title>ListeCorpMetierComponent</title>
<polygon fill="#ffffb3" stroke="#000000" points="1791.1386,-122 1616.8614,-122 1616.8614,-86 1791.1386,-86 1791.1386,-122"/>
<text text-anchor="middle" x="1704" y="-99.8" font-family="Times,serif" font-size="14.00" fill="#000000">ListeCorpMetierComponent</text>
</g>
<!-- ListeCorpMetierComponent&#45;&gt;AppModule -->
<g id="edge5" class="edge">
<title>ListeCorpMetierComponent&#45;&gt;AppModule</title>
<path fill="none" stroke="#000000" d="M1704,-122.0336C1704,-139.0597 1704,-162 1704,-162 1704,-162 1276.6702,-162 1276.6702,-162"/>
<polygon fill="#000000" stroke="#000000" points="1276.6702,-158.5001 1266.6702,-162 1276.6701,-165.5001 1276.6702,-158.5001"/>
</g>
<!-- ListeDepartementComponent -->
<g id="node6" class="node">
<title>ListeDepartementComponent</title>
<polygon fill="#ffffb3" stroke="#000000" points="1598.6232,-122 1417.3768,-122 1417.3768,-86 1598.6232,-86 1598.6232,-122"/>
<text text-anchor="middle" x="1508" y="-99.8" font-family="Times,serif" font-size="14.00" fill="#000000">ListeDepartementComponent</text>
</g>
<!-- ListeDepartementComponent&#45;&gt;AppModule -->
<g id="edge6" class="edge">
<title>ListeDepartementComponent&#45;&gt;AppModule</title>
<path fill="none" stroke="#000000" d="M1508,-122.2396C1508,-137.5706 1508,-157 1508,-157 1508,-157 1276.7576,-157 1276.7576,-157"/>
<polygon fill="#000000" stroke="#000000" points="1276.7577,-153.5001 1266.7576,-157 1276.7576,-160.5001 1276.7577,-153.5001"/>
</g>
<!-- ListeInterventionComponent -->
<g id="node7" class="node">
<title>ListeInterventionComponent</title>
<polygon fill="#ffffb3" stroke="#000000" points="1398.7478,-122 1221.2522,-122 1221.2522,-86 1398.7478,-86 1398.7478,-122"/>
<text text-anchor="middle" x="1310" y="-99.8" font-family="Times,serif" font-size="14.00" fill="#000000">ListeInterventionComponent</text>
</g>
<!-- ListeInterventionComponent&#45;&gt;AppModule -->
<g id="edge7" class="edge">
<title>ListeInterventionComponent&#45;&gt;AppModule</title>
<path fill="none" stroke="#000000" d="M1243.9772,-122.1061C1243.9772,-122.1061 1243.9772,-140.991 1243.9772,-140.991"/>
<polygon fill="#000000" stroke="#000000" points="1240.4773,-140.9909 1243.9772,-150.991 1247.4773,-140.991 1240.4773,-140.9909"/>
</g>
<!-- NavBarComponent -->
<g id="node8" class="node">
<title>NavBarComponent</title>
<polygon fill="#ffffb3" stroke="#000000" points="1203.3655,-122 1078.6345,-122 1078.6345,-86 1203.3655,-86 1203.3655,-122"/>
<text text-anchor="middle" x="1141" y="-99.8" font-family="Times,serif" font-size="14.00" fill="#000000">NavBarComponent</text>
</g>
<!-- NavBarComponent&#45;&gt;AppModule -->
<g id="edge8" class="edge">
<title>NavBarComponent&#45;&gt;AppModule</title>
<path fill="none" stroke="#000000" d="M1193.3023,-122.1061C1193.3023,-122.1061 1193.3023,-140.991 1193.3023,-140.991"/>
<polygon fill="#000000" stroke="#000000" points="1189.8023,-140.9909 1193.3023,-150.991 1196.8023,-140.991 1189.8023,-140.9909"/>
</g>
<!-- SettingDepartementComponent -->
<g id="node9" class="node">
<title>SettingDepartementComponent</title>
<polygon fill="#ffffb3" stroke="#000000" points="1060.799,-122 867.201,-122 867.201,-86 1060.799,-86 1060.799,-122"/>
<text text-anchor="middle" x="964" y="-99.8" font-family="Times,serif" font-size="14.00" fill="#000000">SettingDepartementComponent</text>
</g>
<!-- SettingDepartementComponent&#45;&gt;AppModule -->
<g id="edge9" class="edge">
<title>SettingDepartementComponent&#45;&gt;AppModule</title>
<path fill="none" stroke="#000000" d="M964,-122.2396C964,-137.5706 964,-157 964,-157 964,-157 1173.0658,-157 1173.0658,-157"/>
<polygon fill="#000000" stroke="#000000" points="1173.0659,-160.5001 1183.0658,-157 1173.0658,-153.5001 1173.0659,-160.5001"/>
</g>
<!-- SettingMetierComponent -->
<g id="node10" class="node">
<title>SettingMetierComponent</title>
<polygon fill="#ffffb3" stroke="#000000" points="849.3173,-122 690.6827,-122 690.6827,-86 849.3173,-86 849.3173,-122"/>
<text text-anchor="middle" x="770" y="-99.8" font-family="Times,serif" font-size="14.00" fill="#000000">SettingMetierComponent</text>
</g>
<!-- SettingMetierComponent&#45;&gt;AppModule -->
<g id="edge10" class="edge">
<title>SettingMetierComponent&#45;&gt;AppModule</title>
<path fill="none" stroke="#000000" d="M770,-122.0336C770,-139.0597 770,-162 770,-162 770,-162 1173.0103,-162 1173.0103,-162"/>
<polygon fill="#000000" stroke="#000000" points="1173.0103,-165.5001 1183.0103,-162 1173.0102,-158.5001 1173.0103,-165.5001"/>
</g>
<!-- SettingTechnicienComponent -->
<g id="node11" class="node">
<title>SettingTechnicienComponent</title>
<polygon fill="#ffffb3" stroke="#000000" points="672.6937,-122 489.3063,-122 489.3063,-86 672.6937,-86 672.6937,-122"/>
<text text-anchor="middle" x="581" y="-99.8" font-family="Times,serif" font-size="14.00" fill="#000000">SettingTechnicienComponent</text>
</g>
<!-- SettingTechnicienComponent&#45;&gt;AppModule -->
<g id="edge11" class="edge">
<title>SettingTechnicienComponent&#45;&gt;AppModule</title>
<path fill="none" stroke="#000000" d="M581,-122.2222C581,-140.8285 581,-167 581,-167 581,-167 1173.2416,-167 1173.2416,-167"/>
<polygon fill="#000000" stroke="#000000" points="1173.2416,-170.5001 1183.2416,-167 1173.2415,-163.5001 1173.2416,-170.5001"/>
</g>
<!-- TechnicienComponent -->
<g id="node12" class="node">
<title>TechnicienComponent</title>
<polygon fill="#ffffb3" stroke="#000000" points="471.5254,-122 328.4746,-122 328.4746,-86 471.5254,-86 471.5254,-122"/>
<text text-anchor="middle" x="400" y="-99.8" font-family="Times,serif" font-size="14.00" fill="#000000">TechnicienComponent</text>
</g>
<!-- TechnicienComponent&#45;&gt;AppModule -->
<g id="edge12" class="edge">
<title>TechnicienComponent&#45;&gt;AppModule</title>
<path fill="none" stroke="#000000" d="M400,-122.2228C400,-142.3652 400,-172 400,-172 400,-172 1173.2388,-172 1173.2388,-172"/>
<polygon fill="#000000" stroke="#000000" points="1173.2388,-175.5001 1183.2388,-172 1173.2387,-168.5001 1173.2388,-175.5001"/>
</g>
<!-- AppComponent  -->
<g id="node16" class="node">
<title>AppComponent </title>
<polygon fill="#80b1d3" stroke="#000000" points="1279.439,-252 1170.561,-252 1170.561,-216 1279.439,-216 1279.439,-252"/>
<text text-anchor="middle" x="1225" y="-229.8" font-family="Times,serif" font-size="14.00" fill="#000000">AppComponent </text>
</g>
<!-- AppModule&#45;&gt;AppComponent  -->
<g id="edge15" class="edge">
<title>AppModule&#45;&gt;AppComponent </title>
<path fill="none" stroke="#000000" stroke-dasharray="1,5" d="M1225,-187.1061C1225,-187.1061 1225,-205.991 1225,-205.991"/>
<polygon fill="#000000" stroke="#000000" points="1221.5001,-205.9909 1225,-215.991 1228.5001,-205.991 1221.5001,-205.9909"/>
</g>
<!-- AppRoutingModule -->
<g id="node14" class="node">
<title>AppRoutingModule</title>
<polygon fill="#8dd3c7" stroke="#000000" points="304.2744,-122 301.2744,-126 280.2744,-126 277.2744,-122 175.7256,-122 175.7256,-86 304.2744,-86 304.2744,-122"/>
<text text-anchor="middle" x="240" y="-99.8" font-family="Times,serif" font-size="14.00" fill="#000000">AppRoutingModule</text>
</g>
<!-- AppRoutingModule&#45;&gt;AppModule -->
<g id="edge13" class="edge">
<title>AppRoutingModule&#45;&gt;AppModule</title>
<path fill="none" stroke="#000000" d="M240,-122.0449C240,-143.6623 240,-177 240,-177 240,-177 1173.3049,-177 1173.3049,-177"/>
<polygon fill="#000000" stroke="#000000" points="1173.305,-180.5001 1183.3049,-177 1173.3049,-173.5001 1173.305,-180.5001"/>
</g>
<!-- InterventionsModule -->
<g id="node15" class="node">
<title>InterventionsModule</title>
<polygon fill="#8dd3c7" stroke="#000000" points="157.9173,-122 154.9173,-126 133.9173,-126 130.9173,-122 24.0827,-122 24.0827,-86 157.9173,-86 157.9173,-122"/>
<text text-anchor="middle" x="91" y="-99.8" font-family="Times,serif" font-size="14.00" fill="#000000">InterventionsModule</text>
</g>
<!-- InterventionsModule&#45;&gt;AppModule -->
<g id="edge14" class="edge">
<title>InterventionsModule&#45;&gt;AppModule</title>
<path fill="none" stroke="#000000" d="M91,-122.0908C91,-145.1328 91,-182 91,-182 91,-182 1173.2955,-182 1173.2955,-182"/>
<polygon fill="#000000" stroke="#000000" points="1173.2955,-185.5001 1183.2955,-182 1173.2954,-178.5001 1173.2955,-185.5001"/>
</g>
</g>
</svg>
