<?xml version="1.0" encoding="UTF-8" standalone="no"?>
<!DOCTYPE svg PUBLIC "-//W3C//DTD SVG 1.1//EN"
 "http://www.w3.org/Graphics/SVG/1.1/DTD/svg11.dtd">
<!-- Generated by graphviz version 2.40.1 (20161225.0304)
 -->
<!-- Title: dependencies Pages: 1 -->
<svg width="3268pt" height="284pt"
 viewBox="0.00 0.00 3268.00 284.00" xmlns="http://www.w3.org/2000/svg" xmlns:xlink="http://www.w3.org/1999/xlink">
<g id="graph0" class="graph" transform="scale(1 1) rotate(0) translate(4 280)">
<title>dependencies</title>
<polygon fill="#ffffff" stroke="transparent" points="-4,4 -4,-280 3264,-280 3264,4 -4,4"/>
<text text-anchor="start" x="1609.0091" y="-42.4" font-family="sans-serif" font-weight="bold" font-size="14.00" fill="#000000">Legend</text>
<polygon fill="#ffffb3" stroke="transparent" points="1396,-10 1396,-30 1416,-30 1416,-10 1396,-10"/>
<text text-anchor="start" x="1419.629" y="-15.4" font-family="sans-serif" font-size="14.00" fill="#000000"> &#160;Declarations</text>
<polygon fill="#8dd3c7" stroke="transparent" points="1509,-10 1509,-30 1529,-30 1529,-10 1509,-10"/>
<text text-anchor="start" x="1532.7251" y="-15.4" font-family="sans-serif" font-size="14.00" fill="#000000"> &#160;Module</text>
<polygon fill="#80b1d3" stroke="transparent" points="1595,-10 1595,-30 1615,-30 1615,-10 1595,-10"/>
<text text-anchor="start" x="1618.7812" y="-15.4" font-family="sans-serif" font-size="14.00" fill="#000000"> &#160;Bootstrap</text>
<polygon fill="#fdb462" stroke="transparent" points="1692,-10 1692,-30 1712,-30 1712,-10 1692,-10"/>
<text text-anchor="start" x="1715.6732" y="-15.4" font-family="sans-serif" font-size="14.00" fill="#000000"> &#160;Providers</text>
<polygon fill="#fb8072" stroke="transparent" points="1788,-10 1788,-30 1808,-30 1808,-10 1788,-10"/>
<text text-anchor="start" x="1811.7258" y="-15.4" font-family="sans-serif" font-size="14.00" fill="#000000"> &#160;Exports</text>
<g id="clust1" class="cluster">
<title>cluster_AppModule</title>
<polygon fill="none" stroke="#000000" stroke-dasharray="1,5" points="8,-70 8,-268 3252,-268 3252,-70 8,-70"/>
</g>
<g id="clust2" class="cluster">
<title>cluster_AppModule_declarations</title>
<polygon fill="none" stroke="#000000" points="881,-78 881,-130 3244,-130 3244,-78 881,-78"/>
</g>
<g id="clust17" class="cluster">
<title>cluster_AppModule_imports</title>
<polygon fill="none" stroke="#000000" points="186,-78 186,-130 873,-130 873,-78 186,-78"/>
</g>
<g id="clust19" class="cluster">
<title>cluster_AppModule_bootstrap</title>
<polygon fill="none" stroke="#000000" points="1443,-208 1443,-260 1567,-260 1567,-208 1443,-208"/>
</g>
<g id="clust20" class="cluster">
<title>cluster_AppModule_providers</title>
<polygon fill="none" stroke="#000000" points="16,-78 16,-130 178,-130 178,-78 16,-78"/>
</g>
<!-- AppComponent -->
<g id="node1" class="node">
<title>AppComponent</title>
<polygon fill="#ffffb3" stroke="#000000" points="3235.9399,-122 3130.0601,-122 3130.0601,-86 3235.9399,-86 3235.9399,-122"/>
<text text-anchor="middle" x="3183" y="-99.8" font-family="Times,serif" font-size="14.00" fill="#000000">AppComponent</text>
</g>
<!-- AppModule -->
<g id="node15" class="node">
<title>AppModule</title>
<polygon fill="#8dd3c7" stroke="#000000" points="1546.6571,-187 1543.6571,-191 1522.6571,-191 1519.6571,-187 1463.3429,-187 1463.3429,-151 1546.6571,-151 1546.6571,-187"/>
<text text-anchor="middle" x="1505" y="-164.8" font-family="Times,serif" font-size="14.00" fill="#000000">AppModule</text>
</g>
<!-- AppComponent&#45;&gt;AppModule -->
<g id="edge1" class="edge">
<title>AppComponent&#45;&gt;AppModule</title>
<path fill="none" stroke="#000000" d="M3183,-122.1532C3183,-145.7566 3183,-184 3183,-184 3183,-184 1556.8975,-184 1556.8975,-184"/>
<polygon fill="#000000" stroke="#000000" points="1556.8976,-180.5001 1546.8975,-184 1556.8975,-187.5001 1556.8976,-180.5001"/>
</g>
<!-- CorpsDeMetierComponent -->
<g id="node2" class="node">
<title>CorpsDeMetierComponent</title>
<polygon fill="#ffffb3" stroke="#000000" points="3112.4115,-122 2943.5885,-122 2943.5885,-86 3112.4115,-86 3112.4115,-122"/>
<text text-anchor="middle" x="3028" y="-99.8" font-family="Times,serif" font-size="14.00" fill="#000000">CorpsDeMetierComponent</text>
</g>
<!-- CorpsDeMetierComponent&#45;&gt;AppModule -->
<g id="edge2" class="edge">
<title>CorpsDeMetierComponent&#45;&gt;AppModule</title>
<path fill="none" stroke="#000000" d="M3028,-122.0109C3028,-144.4852 3028,-180 3028,-180 3028,-180 1556.924,-180 1556.924,-180"/>
<polygon fill="#000000" stroke="#000000" points="1556.924,-176.5001 1546.924,-180 1556.924,-183.5001 1556.924,-176.5001"/>
</g>
<!-- DepartementComponent -->
<g id="node3" class="node">
<title>DepartementComponent</title>
<polygon fill="#ffffb3" stroke="#000000" points="2925.6302,-122 2772.3698,-122 2772.3698,-86 2925.6302,-86 2925.6302,-122"/>
<text text-anchor="middle" x="2849" y="-99.8" font-family="Times,serif" font-size="14.00" fill="#000000">DepartementComponent</text>
</g>
<!-- DepartementComponent&#45;&gt;AppModule -->
<g id="edge3" class="edge">
<title>DepartementComponent&#45;&gt;AppModule</title>
<path fill="none" stroke="#000000" d="M2849,-122.0449C2849,-143.6623 2849,-177 2849,-177 2849,-177 1556.697,-177 1556.697,-177"/>
<polygon fill="#000000" stroke="#000000" points="1556.6971,-173.5001 1546.697,-177 1556.697,-180.5001 1556.6971,-173.5001"/>
</g>
<!-- ListeCorpMetierComponent -->
<g id="node4" class="node">
<title>ListeCorpMetierComponent</title>
<polygon fill="#ffffb3" stroke="#000000" points="2754.1386,-122 2579.8614,-122 2579.8614,-86 2754.1386,-86 2754.1386,-122"/>
<text text-anchor="middle" x="2667" y="-99.8" font-family="Times,serif" font-size="14.00" fill="#000000">ListeCorpMetierComponent</text>
</g>
<!-- ListeCorpMetierComponent&#45;&gt;AppModule -->
<g id="edge4" class="edge">
<title>ListeCorpMetierComponent&#45;&gt;AppModule</title>
<path fill="none" stroke="#000000" d="M2667,-122.1289C2667,-142.5724 2667,-173 2667,-173 2667,-173 1556.6988,-173 1556.6988,-173"/>
<polygon fill="#000000" stroke="#000000" points="1556.6988,-169.5001 1546.6988,-173 1556.6988,-176.5001 1556.6988,-169.5001"/>
</g>
<!-- ListeDepartementComponent -->
<g id="node5" class="node">
<title>ListeDepartementComponent</title>
<polygon fill="#ffffb3" stroke="#000000" points="2561.6232,-122 2380.3768,-122 2380.3768,-86 2561.6232,-86 2561.6232,-122"/>
<text text-anchor="middle" x="2471" y="-99.8" font-family="Times,serif" font-size="14.00" fill="#000000">ListeDepartementComponent</text>
</g>
<!-- ListeDepartementComponent&#45;&gt;AppModule -->
<g id="edge5" class="edge">
<title>ListeDepartementComponent&#45;&gt;AppModule</title>
<path fill="none" stroke="#000000" d="M2471,-122.1061C2471,-141.3391 2471,-169 2471,-169 2471,-169 1556.8179,-169 1556.8179,-169"/>
<polygon fill="#000000" stroke="#000000" points="1556.8179,-165.5001 1546.8179,-169 1556.8178,-172.5001 1556.8179,-165.5001"/>
</g>
<!-- ListeInterventionComponent -->
<g id="node6" class="node">
<title>ListeInterventionComponent</title>
<polygon fill="#ffffb3" stroke="#000000" points="2361.7478,-122 2184.2522,-122 2184.2522,-86 2361.7478,-86 2361.7478,-122"/>
<text text-anchor="middle" x="2273" y="-99.8" font-family="Times,serif" font-size="14.00" fill="#000000">ListeInterventionComponent</text>
</g>
<!-- ListeInterventionComponent&#45;&gt;AppModule -->
<g id="edge6" class="edge">
<title>ListeInterventionComponent&#45;&gt;AppModule</title>
<path fill="none" stroke="#000000" d="M2273,-122.2667C2273,-140.5552 2273,-166 2273,-166 2273,-166 1556.8364,-166 1556.8364,-166"/>
<polygon fill="#000000" stroke="#000000" points="1556.8365,-162.5001 1546.8364,-166 1556.8364,-169.5001 1556.8365,-162.5001"/>
</g>
<!-- LoginComponent -->
<g id="node7" class="node">
<title>LoginComponent</title>
<polygon fill="#ffffb3" stroke="#000000" points="2166.2758,-122 2051.7242,-122 2051.7242,-86 2166.2758,-86 2166.2758,-122"/>
<text text-anchor="middle" x="2109" y="-99.8" font-family="Times,serif" font-size="14.00" fill="#000000">LoginComponent</text>
</g>
<!-- LoginComponent&#45;&gt;AppModule -->
<g id="edge7" class="edge">
<title>LoginComponent&#45;&gt;AppModule</title>
<path fill="none" stroke="#000000" d="M2109,-122.0336C2109,-139.0597 2109,-162 2109,-162 2109,-162 1556.9926,-162 1556.9926,-162"/>
<polygon fill="#000000" stroke="#000000" points="1556.9926,-158.5001 1546.9926,-162 1556.9925,-165.5001 1556.9926,-158.5001"/>
</g>
<!-- NavBarComponent -->
<g id="node8" class="node">
<title>NavBarComponent</title>
<polygon fill="#ffffb3" stroke="#000000" points="2033.3655,-122 1908.6345,-122 1908.6345,-86 2033.3655,-86 2033.3655,-122"/>
<text text-anchor="middle" x="1971" y="-99.8" font-family="Times,serif" font-size="14.00" fill="#000000">NavBarComponent</text>
</g>
<!-- NavBarComponent&#45;&gt;AppModule -->
<g id="edge8" class="edge">
<title>NavBarComponent&#45;&gt;AppModule</title>
<path fill="none" stroke="#000000" d="M1971,-122.0091C1971,-138.0494 1971,-159 1971,-159 1971,-159 1556.7645,-159 1556.7645,-159"/>
<polygon fill="#000000" stroke="#000000" points="1556.7645,-155.5001 1546.7645,-159 1556.7645,-162.5001 1556.7645,-155.5001"/>
</g>
<!-- SettingDepartementComponent -->
<g id="node9" class="node">
<title>SettingDepartementComponent</title>
<polygon fill="#ffffb3" stroke="#000000" points="1890.799,-122 1697.201,-122 1697.201,-86 1890.799,-86 1890.799,-122"/>
<text text-anchor="middle" x="1794" y="-99.8" font-family="Times,serif" font-size="14.00" fill="#000000">SettingDepartementComponent</text>
</g>
<!-- SettingDepartementComponent&#45;&gt;AppModule -->
<g id="edge9" class="edge">
<title>SettingDepartementComponent&#45;&gt;AppModule</title>
<path fill="none" stroke="#000000" d="M1794,-122.1243C1794,-136.7832 1794,-155 1794,-155 1794,-155 1556.7144,-155 1556.7144,-155"/>
<polygon fill="#000000" stroke="#000000" points="1556.7145,-151.5001 1546.7144,-155 1556.7144,-158.5001 1556.7145,-151.5001"/>
</g>
<!-- SettingMetierComponent -->
<g id="node10" class="node">
<title>SettingMetierComponent</title>
<polygon fill="#ffffb3" stroke="#000000" points="1679.3173,-122 1520.6827,-122 1520.6827,-86 1679.3173,-86 1679.3173,-122"/>
<text text-anchor="middle" x="1600" y="-99.8" font-family="Times,serif" font-size="14.00" fill="#000000">SettingMetierComponent</text>
</g>
<!-- SettingMetierComponent&#45;&gt;AppModule -->
<g id="edge10" class="edge">
<title>SettingMetierComponent&#45;&gt;AppModule</title>
<path fill="none" stroke="#000000" d="M1533.8349,-122.1061C1533.8349,-122.1061 1533.8349,-140.991 1533.8349,-140.991"/>
<polygon fill="#000000" stroke="#000000" points="1530.3349,-140.9909 1533.8349,-150.991 1537.3349,-140.991 1530.3349,-140.9909"/>
</g>
<!-- SettingTechnicienComponent -->
<g id="node11" class="node">
<title>SettingTechnicienComponent</title>
<polygon fill="#ffffb3" stroke="#000000" points="1502.6937,-122 1319.3063,-122 1319.3063,-86 1502.6937,-86 1502.6937,-122"/>
<text text-anchor="middle" x="1411" y="-99.8" font-family="Times,serif" font-size="14.00" fill="#000000">SettingTechnicienComponent</text>
</g>
<!-- SettingTechnicienComponent&#45;&gt;AppModule -->
<g id="edge11" class="edge">
<title>SettingTechnicienComponent&#45;&gt;AppModule</title>
<path fill="none" stroke="#000000" d="M1482.8843,-122.1061C1482.8843,-122.1061 1482.8843,-140.991 1482.8843,-140.991"/>
<polygon fill="#000000" stroke="#000000" points="1479.3844,-140.9909 1482.8843,-150.991 1486.3844,-140.991 1479.3844,-140.9909"/>
</g>
<!-- SignUpComponent -->
<g id="node12" class="node">
<title>SignUpComponent</title>
<polygon fill="#ffffb3" stroke="#000000" points="1301.1123,-122 1176.8877,-122 1176.8877,-86 1301.1123,-86 1301.1123,-122"/>
<text text-anchor="middle" x="1239" y="-99.8" font-family="Times,serif" font-size="14.00" fill="#000000">SignUpComponent</text>
</g>
<!-- SignUpComponent&#45;&gt;AppModule -->
<g id="edge12" class="edge">
<title>SignUpComponent&#45;&gt;AppModule</title>
<path fill="none" stroke="#000000" d="M1239,-122.1243C1239,-136.7832 1239,-155 1239,-155 1239,-155 1453.1449,-155 1453.1449,-155"/>
<polygon fill="#000000" stroke="#000000" points="1453.1449,-158.5001 1463.1449,-155 1453.1448,-151.5001 1453.1449,-158.5001"/>
</g>
<!-- TechnicienComponent -->
<g id="node13" class="node">
<title>TechnicienComponent</title>
<polygon fill="#ffffb3" stroke="#000000" points="1158.5254,-122 1015.4746,-122 1015.4746,-86 1158.5254,-86 1158.5254,-122"/>
<text text-anchor="middle" x="1087" y="-99.8" font-family="Times,serif" font-size="14.00" fill="#000000">TechnicienComponent</text>
</g>
<!-- TechnicienComponent&#45;&gt;AppModule -->
<g id="edge13" class="edge">
<title>TechnicienComponent&#45;&gt;AppModule</title>
<path fill="none" stroke="#000000" d="M1087,-122.0091C1087,-138.0494 1087,-159 1087,-159 1087,-159 1453.0067,-159 1453.0067,-159"/>
<polygon fill="#000000" stroke="#000000" points="1453.0068,-162.5001 1463.0067,-159 1453.0067,-155.5001 1453.0068,-162.5001"/>
</g>
<!-- UserComponent -->
<g id="node14" class="node">
<title>UserComponent</title>
<polygon fill="#ffffb3" stroke="#000000" points="996.7591,-122 889.2409,-122 889.2409,-86 996.7591,-86 996.7591,-122"/>
<text text-anchor="middle" x="943" y="-99.8" font-family="Times,serif" font-size="14.00" fill="#000000">UserComponent</text>
</g>
<!-- UserComponent&#45;&gt;AppModule -->
<g id="edge14" class="edge">
<title>UserComponent&#45;&gt;AppModule</title>
<path fill="none" stroke="#000000" d="M943,-122.0336C943,-139.0597 943,-162 943,-162 943,-162 1453.2178,-162 1453.2178,-162"/>
<polygon fill="#000000" stroke="#000000" points="1453.2178,-165.5001 1463.2178,-162 1453.2178,-158.5001 1453.2178,-165.5001"/>
</g>
<!-- AppComponent  -->
<g id="node21" class="node">
<title>AppComponent </title>
<polygon fill="#80b1d3" stroke="#000000" points="1559.439,-252 1450.561,-252 1450.561,-216 1559.439,-216 1559.439,-252"/>
<text text-anchor="middle" x="1505" y="-229.8" font-family="Times,serif" font-size="14.00" fill="#000000">AppComponent </text>
</g>
<!-- AppModule&#45;&gt;AppComponent  -->
<g id="edge20" class="edge">
<title>AppModule&#45;&gt;AppComponent </title>
<path fill="none" stroke="#000000" stroke-dasharray="1,5" d="M1505,-187.1061C1505,-187.1061 1505,-205.991 1505,-205.991"/>
<polygon fill="#000000" stroke="#000000" points="1501.5001,-205.9909 1505,-215.991 1508.5001,-205.991 1501.5001,-205.9909"/>
</g>
<!-- AppRoutingModule -->
<g id="node16" class="node">
<title>AppRoutingModule</title>
<polygon fill="#8dd3c7" stroke="#000000" points="865.2744,-122 862.2744,-126 841.2744,-126 838.2744,-122 736.7256,-122 736.7256,-86 865.2744,-86 865.2744,-122"/>
<text text-anchor="middle" x="801" y="-99.8" font-family="Times,serif" font-size="14.00" fill="#000000">AppRoutingModule</text>
</g>
<!-- AppRoutingModule&#45;&gt;AppModule -->
<g id="edge15" class="edge">
<title>AppRoutingModule&#45;&gt;AppModule</title>
<path fill="none" stroke="#000000" d="M801,-122.2667C801,-140.5552 801,-166 801,-166 801,-166 1453.3302,-166 1453.3302,-166"/>
<polygon fill="#000000" stroke="#000000" points="1453.3303,-169.5001 1463.3302,-166 1453.3302,-162.5001 1453.3303,-169.5001"/>
</g>
<!-- InterventionsModule -->
<g id="node17" class="node">
<title>InterventionsModule</title>
<polygon fill="#8dd3c7" stroke="#000000" points="718.9173,-122 715.9173,-126 694.9173,-126 691.9173,-122 585.0827,-122 585.0827,-86 718.9173,-86 718.9173,-122"/>
<text text-anchor="middle" x="652" y="-99.8" font-family="Times,serif" font-size="14.00" fill="#000000">InterventionsModule</text>
</g>
<!-- InterventionsModule&#45;&gt;AppModule -->
<g id="edge16" class="edge">
<title>InterventionsModule&#45;&gt;AppModule</title>
<path fill="none" stroke="#000000" d="M652,-122.1061C652,-141.3391 652,-169 652,-169 652,-169 1453.2806,-169 1453.2806,-169"/>
<polygon fill="#000000" stroke="#000000" points="1453.2806,-172.5001 1463.2806,-169 1453.2806,-165.5001 1453.2806,-172.5001"/>
</g>
<!-- MaintenancesModule -->
<g id="node18" class="node">
<title>MaintenancesModule</title>
<polygon fill="#8dd3c7" stroke="#000000" points="567.7935,-122 564.7935,-126 543.7935,-126 540.7935,-122 430.2065,-122 430.2065,-86 567.7935,-86 567.7935,-122"/>
<text text-anchor="middle" x="499" y="-99.8" font-family="Times,serif" font-size="14.00" fill="#000000">MaintenancesModule</text>
</g>
<!-- MaintenancesModule&#45;&gt;AppModule -->
<g id="edge17" class="edge">
<title>MaintenancesModule&#45;&gt;AppModule</title>
<path fill="none" stroke="#000000" d="M499,-122.1289C499,-142.5724 499,-173 499,-173 499,-173 1453.0542,-173 1453.0542,-173"/>
<polygon fill="#000000" stroke="#000000" points="1453.0543,-176.5001 1463.0542,-173 1453.0542,-169.5001 1453.0543,-176.5001"/>
</g>
<!-- StoragesModule -->
<g id="node19" class="node">
<title>StoragesModule</title>
<polygon fill="#8dd3c7" stroke="#000000" points="411.7577,-122 408.7577,-126 387.7577,-126 384.7577,-122 304.2423,-122 304.2423,-86 411.7577,-86 411.7577,-122"/>
<text text-anchor="middle" x="358" y="-99.8" font-family="Times,serif" font-size="14.00" fill="#000000">StoragesModule</text>
</g>
<!-- StoragesModule&#45;&gt;AppModule -->
<g id="edge18" class="edge">
<title>StoragesModule&#45;&gt;AppModule</title>
<path fill="none" stroke="#000000" d="M358,-122.0449C358,-143.6623 358,-177 358,-177 358,-177 1453.1593,-177 1453.1593,-177"/>
<polygon fill="#000000" stroke="#000000" points="1453.1594,-180.5001 1463.1593,-177 1453.1593,-173.5001 1453.1594,-180.5001"/>
</g>
<!-- UsersModule -->
<g id="node20" class="node">
<title>UsersModule</title>
<polygon fill="#8dd3c7" stroke="#000000" points="285.9218,-122 282.9218,-126 261.9218,-126 258.9218,-122 194.0782,-122 194.0782,-86 285.9218,-86 285.9218,-122"/>
<text text-anchor="middle" x="240" y="-99.8" font-family="Times,serif" font-size="14.00" fill="#000000">UsersModule</text>
</g>
<!-- UsersModule&#45;&gt;AppModule -->
<g id="edge19" class="edge">
<title>UsersModule&#45;&gt;AppModule</title>
<path fill="none" stroke="#000000" d="M240,-122.0109C240,-144.4852 240,-180 240,-180 240,-180 1453.2715,-180 1453.2715,-180"/>
<polygon fill="#000000" stroke="#000000" points="1453.2715,-183.5001 1463.2715,-180 1453.2715,-176.5001 1453.2715,-183.5001"/>
</g>
<!-- AuthInterceptor -->
<g id="node22" class="node">
<title>AuthInterceptor</title>
<ellipse fill="#fdb462" stroke="#000000" cx="97" cy="-104" rx="72.9121" ry="18"/>
<text text-anchor="middle" x="97" y="-99.8" font-family="Times,serif" font-size="14.00" fill="#000000">AuthInterceptor</text>
</g>
<!-- AuthInterceptor&#45;&gt;AppModule -->
<g id="edge21" class="edge">
<title>AuthInterceptor&#45;&gt;AppModule</title>
<path fill="none" stroke="#000000" d="M97,-122.1532C97,-145.7566 97,-184 97,-184 97,-184 1453.2434,-184 1453.2434,-184"/>
<polygon fill="#000000" stroke="#000000" points="1453.2434,-187.5001 1463.2434,-184 1453.2433,-180.5001 1453.2434,-187.5001"/>
</g>
</g>
</svg>
