<?xml version="1.0" encoding="UTF-8" standalone="no"?>
<!DOCTYPE svg PUBLIC "-//W3C//DTD SVG 1.1//EN"
 "http://www.w3.org/Graphics/SVG/1.1/DTD/svg11.dtd">
<!-- Generated by graphviz version 2.40.1 (20161225.0304)
 -->
<!-- Title: dependencies Pages: 1 -->
<svg width="504pt" height="211pt"
 viewBox="0.00 0.00 504.00 211.00" xmlns="http://www.w3.org/2000/svg" xmlns:xlink="http://www.w3.org/1999/xlink">
<g id="graph0" class="graph" transform="scale(1 1) rotate(0) translate(4 207)">
<title>dependencies</title>
<polygon fill="#ffffff" stroke="transparent" points="-4,4 -4,-207 500,-207 500,4 -4,4"/>
<text text-anchor="start" x="227.0091" y="-42.4" font-family="sans-serif" font-weight="bold" font-size="14.00" fill="#000000">Legend</text>
<polygon fill="#ffffb3" stroke="transparent" points="14,-10 14,-30 34,-30 34,-10 14,-10"/>
<text text-anchor="start" x="37.629" y="-15.4" font-family="sans-serif" font-size="14.00" fill="#000000"> &#160;Declarations</text>
<polygon fill="#8dd3c7" stroke="transparent" points="127,-10 127,-30 147,-30 147,-10 127,-10"/>
<text text-anchor="start" x="150.7251" y="-15.4" font-family="sans-serif" font-size="14.00" fill="#000000"> &#160;Module</text>
<polygon fill="#80b1d3" stroke="transparent" points="213,-10 213,-30 233,-30 233,-10 213,-10"/>
<text text-anchor="start" x="236.7812" y="-15.4" font-family="sans-serif" font-size="14.00" fill="#000000"> &#160;Bootstrap</text>
<polygon fill="#fdb462" stroke="transparent" points="310,-10 310,-30 330,-30 330,-10 310,-10"/>
<text text-anchor="start" x="333.6732" y="-15.4" font-family="sans-serif" font-size="14.00" fill="#000000"> &#160;Providers</text>
<polygon fill="#fb8072" stroke="transparent" points="406,-10 406,-30 426,-30 426,-10 406,-10"/>
<text text-anchor="start" x="429.7258" y="-15.4" font-family="sans-serif" font-size="14.00" fill="#000000"> &#160;Exports</text>
<g id="clust1" class="cluster">
<title>cluster_StoragesModule</title>
<polygon fill="none" stroke="#000000" stroke-dasharray="1,5" points="79,-70 79,-195 417,-195 417,-70 79,-70"/>
</g>
<g id="clust2" class="cluster">
<title>cluster_StoragesModule_declarations</title>
<polygon fill="none" stroke="#000000" points="263,-78 263,-130 409,-130 409,-78 263,-78"/>
</g>
<g id="clust4" class="cluster">
<title>cluster_StoragesModule_imports</title>
<polygon fill="none" stroke="#000000" points="87,-78 87,-130 255,-130 255,-78 87,-78"/>
</g>
<!-- StoragesComponent -->
<g id="node1" class="node">
<title>StoragesComponent</title>
<polygon fill="#ffffb3" stroke="#000000" points="400.5408,-122 271.4592,-122 271.4592,-86 400.5408,-86 400.5408,-122"/>
<text text-anchor="middle" x="336" y="-99.8" font-family="Times,serif" font-size="14.00" fill="#000000">StoragesComponent</text>
</g>
<!-- StoragesModule -->
<g id="node2" class="node">
<title>StoragesModule</title>
<polygon fill="#8dd3c7" stroke="#000000" points="306.7577,-187 303.7577,-191 282.7577,-191 279.7577,-187 199.2423,-187 199.2423,-151 306.7577,-151 306.7577,-187"/>
<text text-anchor="middle" x="253" y="-164.8" font-family="Times,serif" font-size="14.00" fill="#000000">StoragesModule</text>
</g>
<!-- StoragesComponent&#45;&gt;StoragesModule -->
<g id="edge1" class="edge">
<title>StoragesComponent&#45;&gt;StoragesModule</title>
<path fill="none" stroke="#000000" d="M289.0544,-122.1061C289.0544,-122.1061 289.0544,-140.991 289.0544,-140.991"/>
<polygon fill="#000000" stroke="#000000" points="285.5544,-140.9909 289.0544,-150.991 292.5544,-140.991 285.5544,-140.9909"/>
</g>
<!-- StoragesRoutingModule -->
<g id="node3" class="node">
<title>StoragesRoutingModule</title>
<polygon fill="#8dd3c7" stroke="#000000" points="247.3753,-122 244.3753,-126 223.3753,-126 220.3753,-122 94.6247,-122 94.6247,-86 247.3753,-86 247.3753,-122"/>
<text text-anchor="middle" x="171" y="-99.8" font-family="Times,serif" font-size="14.00" fill="#000000">StoragesRoutingModule</text>
</g>
<!-- StoragesRoutingModule&#45;&gt;StoragesModule -->
<g id="edge2" class="edge">
<title>StoragesRoutingModule&#45;&gt;StoragesModule</title>
<path fill="none" stroke="#000000" d="M223.2795,-122.1061C223.2795,-122.1061 223.2795,-140.991 223.2795,-140.991"/>
<polygon fill="#000000" stroke="#000000" points="219.7795,-140.9909 223.2795,-150.991 226.7795,-140.991 219.7795,-140.9909"/>
</g>
</g>
</svg>
