<?xml version="1.0" encoding="UTF-8" standalone="no"?>
<!DOCTYPE svg PUBLIC "-//W3C//DTD SVG 1.1//EN"
 "http://www.w3.org/Graphics/SVG/1.1/DTD/svg11.dtd">
<!-- Generated by graphviz version 2.40.1 (20161225.0304)
 -->
<!-- Title: dependencies Pages: 1 -->
<svg width="858pt" height="211pt"
 viewBox="0.00 0.00 858.00 211.00" xmlns="http://www.w3.org/2000/svg" xmlns:xlink="http://www.w3.org/1999/xlink">
<g id="graph0" class="graph" transform="scale(1 1) rotate(0) translate(4 207)">
<title>dependencies</title>
<polygon fill="#ffffff" stroke="transparent" points="-4,4 -4,-207 854,-207 854,4 -4,4"/>
<text text-anchor="start" x="404.0091" y="-42.4" font-family="sans-serif" font-weight="bold" font-size="14.00" fill="#000000">Legend</text>
<polygon fill="#ffffb3" stroke="transparent" points="191,-10 191,-30 211,-30 211,-10 191,-10"/>
<text text-anchor="start" x="214.629" y="-15.4" font-family="sans-serif" font-size="14.00" fill="#000000"> &#160;Declarations</text>
<polygon fill="#8dd3c7" stroke="transparent" points="304,-10 304,-30 324,-30 324,-10 304,-10"/>
<text text-anchor="start" x="327.7251" y="-15.4" font-family="sans-serif" font-size="14.00" fill="#000000"> &#160;Module</text>
<polygon fill="#80b1d3" stroke="transparent" points="390,-10 390,-30 410,-30 410,-10 390,-10"/>
<text text-anchor="start" x="413.7812" y="-15.4" font-family="sans-serif" font-size="14.00" fill="#000000"> &#160;Bootstrap</text>
<polygon fill="#fdb462" stroke="transparent" points="487,-10 487,-30 507,-30 507,-10 487,-10"/>
<text text-anchor="start" x="510.6732" y="-15.4" font-family="sans-serif" font-size="14.00" fill="#000000"> &#160;Providers</text>
<polygon fill="#fb8072" stroke="transparent" points="583,-10 583,-30 603,-30 603,-10 583,-10"/>
<text text-anchor="start" x="606.7258" y="-15.4" font-family="sans-serif" font-size="14.00" fill="#000000"> &#160;Exports</text>
<g id="clust1" class="cluster">
<title>cluster_SettingsModule</title>
<polygon fill="none" stroke="#000000" stroke-dasharray="1,5" points="8,-70 8,-195 842,-195 842,-70 8,-70"/>
</g>
<g id="clust2" class="cluster">
<title>cluster_SettingsModule_declarations</title>
<polygon fill="none" stroke="#000000" points="390,-78 390,-130 834,-130 834,-78 390,-78"/>
</g>
<g id="clust6" class="cluster">
<title>cluster_SettingsModule_imports</title>
<polygon fill="none" stroke="#000000" points="16,-78 16,-130 382,-130 382,-78 16,-78"/>
</g>
<!-- AssetComponent -->
<g id="node1" class="node">
<title>AssetComponent</title>
<polygon fill="#ffffb3" stroke="#000000" points="826.4342,-122 713.5658,-122 713.5658,-86 826.4342,-86 826.4342,-122"/>
<text text-anchor="middle" x="770" y="-99.8" font-family="Times,serif" font-size="14.00" fill="#000000">AssetComponent</text>
</g>
<!-- SettingsModule -->
<g id="node4" class="node">
<title>SettingsModule</title>
<polygon fill="#8dd3c7" stroke="#000000" points="513.1639,-187 510.1639,-191 489.1639,-191 486.1639,-187 408.8361,-187 408.8361,-151 513.1639,-151 513.1639,-187"/>
<text text-anchor="middle" x="461" y="-164.8" font-family="Times,serif" font-size="14.00" fill="#000000">SettingsModule</text>
</g>
<!-- AssetComponent&#45;&gt;SettingsModule -->
<g id="edge1" class="edge">
<title>AssetComponent&#45;&gt;SettingsModule</title>
<path fill="none" stroke="#000000" d="M770,-122.2843C770,-143.3211 770,-175 770,-175 770,-175 523.4176,-175 523.4176,-175"/>
<polygon fill="#000000" stroke="#000000" points="523.4177,-171.5001 513.4176,-175 523.4176,-178.5001 523.4177,-171.5001"/>
</g>
<!-- MaintenanceComponent -->
<g id="node2" class="node">
<title>MaintenanceComponent</title>
<polygon fill="#ffffb3" stroke="#000000" points="695.6316,-122 542.3684,-122 542.3684,-86 695.6316,-86 695.6316,-122"/>
<text text-anchor="middle" x="619" y="-99.8" font-family="Times,serif" font-size="14.00" fill="#000000">MaintenanceComponent</text>
</g>
<!-- MaintenanceComponent&#45;&gt;SettingsModule -->
<g id="edge2" class="edge">
<title>MaintenanceComponent&#45;&gt;SettingsModule</title>
<path fill="none" stroke="#000000" d="M619,-122.0225C619,-139.3734 619,-163 619,-163 619,-163 523.173,-163 523.173,-163"/>
<polygon fill="#000000" stroke="#000000" points="523.173,-159.5001 513.173,-163 523.173,-166.5001 523.173,-159.5001"/>
</g>
<!-- SettingsComponent -->
<g id="node3" class="node">
<title>SettingsComponent</title>
<polygon fill="#ffffb3" stroke="#000000" points="524.4468,-122 397.5532,-122 397.5532,-86 524.4468,-86 524.4468,-122"/>
<text text-anchor="middle" x="461" y="-99.8" font-family="Times,serif" font-size="14.00" fill="#000000">SettingsComponent</text>
</g>
<!-- SettingsComponent&#45;&gt;SettingsModule -->
<g id="edge3" class="edge">
<title>SettingsComponent&#45;&gt;SettingsModule</title>
<path fill="none" stroke="#000000" d="M461,-122.1061C461,-122.1061 461,-140.991 461,-140.991"/>
<polygon fill="#000000" stroke="#000000" points="457.5001,-140.9909 461,-150.991 464.5001,-140.991 457.5001,-140.9909"/>
</g>
<!-- MaintenancesRoutingModule -->
<g id="node5" class="node">
<title>MaintenancesRoutingModule</title>
<polygon fill="#8dd3c7" stroke="#000000" points="374.4115,-122 371.4115,-126 350.4115,-126 347.4115,-122 191.5885,-122 191.5885,-86 374.4115,-86 374.4115,-122"/>
<text text-anchor="middle" x="283" y="-99.8" font-family="Times,serif" font-size="14.00" fill="#000000">MaintenancesRoutingModule</text>
</g>
<!-- MaintenancesRoutingModule&#45;&gt;SettingsModule -->
<g id="edge4" class="edge">
<title>MaintenancesRoutingModule&#45;&gt;SettingsModule</title>
<path fill="none" stroke="#000000" d="M283,-122.0225C283,-139.3734 283,-163 283,-163 283,-163 398.5569,-163 398.5569,-163"/>
<polygon fill="#000000" stroke="#000000" points="398.5569,-166.5001 408.5569,-163 398.5568,-159.5001 398.5569,-166.5001"/>
</g>
<!-- SettingsRoutingModule -->
<g id="node6" class="node">
<title>SettingsRoutingModule</title>
<polygon fill="#8dd3c7" stroke="#000000" points="173.7814,-122 170.7814,-126 149.7814,-126 146.7814,-122 24.2186,-122 24.2186,-86 173.7814,-86 173.7814,-122"/>
<text text-anchor="middle" x="99" y="-99.8" font-family="Times,serif" font-size="14.00" fill="#000000">SettingsRoutingModule</text>
</g>
<!-- SettingsRoutingModule&#45;&gt;SettingsModule -->
<g id="edge5" class="edge">
<title>SettingsRoutingModule&#45;&gt;SettingsModule</title>
<path fill="none" stroke="#000000" d="M99,-122.2843C99,-143.3211 99,-175 99,-175 99,-175 398.7487,-175 398.7487,-175"/>
<polygon fill="#000000" stroke="#000000" points="398.7487,-178.5001 408.7487,-175 398.7487,-171.5001 398.7487,-178.5001"/>
</g>
</g>
</svg>
